<svg width="23" height="10" viewBox="0 0 23 10" fill="none" xmlns="http://www.w3.org/2000/svg">
<path d="M18 7.375L18 1.875C18 1.11561 17.1605 0.5 16.125 0.5L2.375 0.499999C1.33947 0.499999 0.5 1.11561 0.5 1.875L0.5 7.375C0.5 8.13439 1.33947 8.75 2.375 8.75L16.125 8.75C17.1605 8.75 18 8.13439 18 7.375Z" stroke="#F68749"/>
<path d="M6.125 6.64167L6.125 2.60833C6.125 2.20332 5.67729 1.875 5.125 1.875L3.375 1.875C2.82271 1.875 2.375 2.20332 2.375 2.60833L2.375 6.64167C2.375 7.04668 2.82271 7.375 3.375 7.375L5.125 7.375C5.67729 7.375 6.125 7.04668 6.125 6.64167Z" fill="#F68749"/>
<path fill-rule="evenodd" clip-rule="evenodd" d="M22.0088 2.14358C21.6425 1.875 21.0538 1.875 19.875 1.875L19.875 7.375C21.0537 7.375 21.6425 7.375 22.0087 7.10642C22.375 6.83783 22.375 6.40608 22.375 5.54167L22.375 3.70833C22.375 2.84392 22.375 2.41217 22.0088 2.14358Z" fill="#F68749"/>
</svg>
