<svg width="164" height="164" viewBox="0 0 164 164" fill="none" xmlns="http://www.w3.org/2000/svg">
<g clip-path="url(#clip0_78_1792)">
<path d="M164 0H0V164H164V0Z" fill="white"/>
<path fill-rule="evenodd" clip-rule="evenodd" d="M28.7423 89.5137C55.1907 83.2275 102.195 84.5233 133.73 92.4078C165.264 100.292 169.387 111.78 142.939 118.066C117.768 124.048 73.979 123.163 42.6255 116.268C37.2056 115.434 32.0287 114.419 27.2657 113.228C0.357419 106.501 -3.16086 96.6985 19.4072 91.3348C21.9822 90.7227 24.7856 90.1949 27.7714 89.7501C28.09 89.6707 28.4139 89.5918 28.7423 89.5137Z" fill="url(#paint0_linear_78_1792)"/>
<path fill-rule="evenodd" clip-rule="evenodd" d="M30.9442 102.866C28.4786 104.714 24.7562 104.061 22.4466 102.021C20.1372 99.9803 19.0217 96.8936 18.5142 93.8539C17.5278 87.9459 18.5591 81.7198 21.3978 76.4456C22.0329 75.2657 22.8529 74.0523 24.1232 73.6257C36.3206 69.5287 48.9611 66.7523 61.7526 65.3599C71.3654 64.3135 81.1508 64.0542 90.6492 65.8654C100.148 67.6766 109.39 71.6649 116.433 78.2907C119.19 80.885 123.219 81.5624 127.002 81.7157C130.785 81.8688 134.673 81.6333 138.256 82.8569C144.329 84.9312 148.246 90.6856 151.72 96.0821C152.658 97.5393 153.605 99.0159 154.153 100.66C155.846 105.743 153.526 111.753 156.079 116.464C154.525 116.94 152.855 117.036 151.256 116.742C151.562 118.162 149.676 118.943 148.236 119.14C141.887 120.004 135.538 120.869 129.189 121.733C128.975 121.093 129.173 120.335 129.674 119.883C118.985 118.809 108.289 117.799 97.5873 116.852C96.3899 116.747 94.9687 116.735 94.2502 117.699C90.3282 122.958 81.4897 123.449 77.0092 118.657C75.3585 116.891 74.1414 114.495 71.8679 113.674C62.8481 110.415 53.8284 107.157 44.8086 103.899C42.3046 102.994 38.4469 102.026 33.2357 100.994C32.8751 100.882 32.6157 100.892 32.4574 101.023C31.6672 101.676 31.1544 102.708 30.9442 102.866Z" fill="white"/>
<path fill-rule="evenodd" clip-rule="evenodd" d="M19.835 84.1423C20.3568 81.6954 23.5376 80.5832 25.878 81.4678C28.2181 82.3523 29.6165 84.9916 30.667 87.2622C32.1006 90.3611 32.558 101.076 29.9025 103.067C27.4368 104.915 24.7562 104.061 22.4466 102.021C20.1372 99.9803 19.0217 96.8936 18.5142 93.8539C17.5278 87.946 20.4263 82.0461 19.835 84.1423Z" fill="#1E196B"/>
<path fill-rule="evenodd" clip-rule="evenodd" d="M24.1793 102.789C26.8322 102.789 28.9828 98.4422 28.9828 93.08C28.9828 87.7179 25.9168 83.4443 24.1793 83.371C22.442 83.2975 19.376 87.7179 19.376 93.08C19.376 98.4422 21.5266 102.789 24.1793 102.789Z" fill="white"/>
<path fill-rule="evenodd" clip-rule="evenodd" d="M91.4913 120.121C92.21 119.649 92.8717 119.091 93.5268 118.528C94.6195 117.589 95.7286 116.596 96.3555 115.276C96.8339 114.269 96.9995 113.136 97.1038 112.019C97.4436 108.389 97.4679 104.384 96.3555 100.924C95.2434 97.4639 92.9644 94.5576 90.1731 92.3371C88.8563 91.2899 87.353 90.4559 85.7252 90.1198C83.3304 89.6256 80.4624 90.1716 78.3879 91.5064C76.3134 92.8409 74.7657 94.6399 73.5809 96.8528C71.6788 100.406 70.9453 105.163 71.9453 109.092C72.2786 110.402 72.7415 112.237 73.3378 113.442C74.2568 115.3 76.7114 120.236 81.2975 121.662C86.3902 123.246 89.933 121.143 91.4913 120.121Z" fill="#1E196B"/>
<path fill-rule="evenodd" clip-rule="evenodd" d="M85.7634 120.262C92.5615 119.265 95.3985 114.898 95.3985 107.911C95.3985 100.924 89.9955 93.4595 84.069 93.4595C78.1422 93.4595 73.3379 99.4079 73.3379 106.746C73.3379 114.083 78.9653 121.26 85.7634 120.262Z" fill="white"/>
<path fill-rule="evenodd" clip-rule="evenodd" d="M48.8782 81.8217C48.7004 81.6608 48.7286 81.3792 48.7711 81.1432C48.8015 80.9744 48.8918 80.7588 49.0615 80.7829C49.3586 80.8253 49.1631 81.4419 49.4533 81.5176C50.6289 81.8237 51.7919 82.1773 52.9391 82.5772C53.1746 82.6595 53.4075 82.471 53.6097 82.3251C53.8118 82.179 54.1339 82.0828 54.2788 82.2858C53.9659 82.5648 53.6198 82.8582 53.2015 82.8864C53.0362 82.8976 52.8715 82.8654 52.709 82.8326C51.5153 82.5908 50.3319 82.2978 49.1631 81.9549C49.0617 81.925 48.9565 81.8928 48.8782 81.8217Z" fill="#1E196B"/>
<path fill-rule="evenodd" clip-rule="evenodd" d="M69.9308 107.911C63.321 105.342 56.9974 102.037 51.1148 98.0754C49.3204 96.8673 47.99 95.0552 47.0942 93.0863C46.1981 91.1172 45.7109 88.9872 45.3534 86.8537C44.9165 84.248 44.6643 81.6113 44.5996 78.9701C44.8078 78.9379 44.9046 79.2176 44.9204 79.4277C45.2707 84.0897 45.5062 88.8929 47.4665 93.1373C47.7836 93.8239 48.1857 94.5324 48.8647 94.8656C55.2082 97.9783 61.5515 101.091 67.895 104.204C67.6071 104.385 67.2329 104.237 66.9274 104.087C60.8485 101.1 54.7696 98.1121 48.6906 95.1247C49.4142 96.5297 50.7649 97.4872 52.0852 98.3555C57.3903 101.844 63.0396 104.808 68.9241 107.192C68.215 106.391 67.4584 105.448 67.5845 104.385C67.7837 104.575 67.8835 104.842 67.9943 105.094C68.4555 106.14 69.1979 107.033 69.9308 107.911Z" fill="#1E196B"/>
<path fill-rule="evenodd" clip-rule="evenodd" d="M149.114 44.6237C149.178 44.5705 149.277 44.6624 149.262 44.7437C149.247 44.8253 149.17 44.8784 149.1 44.9228C149.032 44.8338 149.033 44.6978 149.103 44.6101L149.114 44.6237Z" fill="#1E196B"/>
<path fill-rule="evenodd" clip-rule="evenodd" d="M110.219 88.1881C110.334 88.0002 110.61 88.0236 110.825 88.072C119.943 90.1237 128.283 94.89 135.534 100.787C135.742 100.956 135.967 101.165 135.963 101.432C134.738 100.523 133.514 99.6136 132.289 98.7042C131.474 98.0998 130.66 97.4952 129.83 96.9131C123.935 92.7803 117.235 89.7999 110.219 88.1881Z" fill="#1E196B"/>
<path fill-rule="evenodd" clip-rule="evenodd" d="M97.473 90.9293C97.2902 90.9381 97.1177 90.8524 96.9541 90.7701C91.7111 88.1282 86.014 86.5363 80.3584 84.9606C80.4638 84.7614 80.7551 84.794 80.972 84.8557C86.1345 86.3216 91.3223 87.7969 96.1875 90.0617C96.6604 90.2819 97.1465 90.5222 97.473 90.9293Z" fill="#1E196B"/>
<path fill-rule="evenodd" clip-rule="evenodd" d="M77.1935 106.408C77.1177 106.493 76.9738 106.507 76.8828 106.437C78 102.971 80.9454 100.153 84.4576 99.189C84.5064 99.4214 84.2261 99.5723 84.0011 99.6477C80.8597 100.7 78.2676 103.274 77.1935 106.408Z" fill="#1E196B"/>
<path fill-rule="evenodd" clip-rule="evenodd" d="M57.3045 105.705C58.7593 106.517 60.0011 107.706 60.8747 109.125C60.6499 109.252 60.4019 109.01 60.2524 108.8C59.3377 107.514 58.1963 106.334 56.7513 105.7C51.9312 103.583 47.1894 101.288 42.5391 98.8201C42.721 98.7276 42.9386 98.8159 43.1225 98.9036C45.0673 99.8323 47.0123 100.761 48.9572 101.69C50.274 102.318 51.5908 102.947 52.9076 103.576C54.0014 104.098 55.0951 104.62 56.1889 105.142C56.5646 105.322 56.9409 105.501 57.3045 105.705Z" fill="#1E196B"/>
<path fill-rule="evenodd" clip-rule="evenodd" d="M74.3397 100.734C74.517 100.26 74.6198 99.7405 75.058 99.4873C73.7185 102.28 73.3236 105.437 73.5002 108.529C73.5223 108.916 73.5569 109.303 73.636 109.683C73.7661 110.306 74.0178 110.904 74.3727 111.433C74.3622 111.537 74.2223 111.584 74.1272 111.54C74.0323 111.497 73.9758 111.4 73.9277 111.307C73.0881 109.684 72.9986 107.776 73.1349 105.953C73.1688 105.502 73.2151 105.051 73.2903 104.605C73.514 103.278 73.7635 101.986 74.2352 100.725L74.3397 100.734Z" fill="#1E196B"/>
<path fill-rule="evenodd" clip-rule="evenodd" d="M142.571 99.515C142.789 99.5189 143.022 99.5537 143.184 99.6997C143.263 99.7712 143.319 99.8642 143.373 99.9562C143.644 100.42 143.887 100.9 144.102 101.392C144.018 101.584 143.784 101.673 143.576 101.653C143.369 101.633 143.18 101.528 143 101.422C142.504 101.13 142.02 100.817 141.549 100.485C141.42 100.394 141.275 100.246 141.342 100.102C141.544 99.6659 142.09 99.5064 142.571 99.515ZM143.648 101.451C143.692 101.4 143.736 101.349 143.78 101.298C143.632 101.022 143.484 100.745 143.335 100.468C143.206 100.227 143.059 99.9694 142.808 99.8607C142.616 99.7778 142.397 99.7979 142.191 99.8338C142.054 99.8576 141.908 99.8928 141.814 99.9954C141.719 100.098 141.71 100.288 141.829 100.36C142.435 100.724 143.042 101.087 143.648 101.451Z" fill="#1E196B"/>
<path fill-rule="evenodd" clip-rule="evenodd" d="M79.9229 107.041C79.8002 106.788 79.8687 106.486 79.9574 106.219C80.646 104.144 82.3726 102.569 84.2418 101.435C84.3279 101.383 84.4266 101.33 84.5239 101.355C84.6214 101.38 84.6771 101.53 84.5906 101.581C82.745 102.674 80.9992 104.172 80.3189 106.206C80.2203 106.501 80.1381 106.817 79.9229 107.041Z" fill="#1E196B"/>
<path fill-rule="evenodd" clip-rule="evenodd" d="M27.2617 90.733C27.3568 90.5465 27.6292 90.7509 27.7097 90.944C28.3213 92.4128 28.4468 94.0792 28.0622 95.623C27.6773 97.1668 26.7843 98.5794 25.555 99.5892C25.3509 99.4919 25.5108 99.186 25.677 99.0329C26.7865 98.0109 27.5564 96.6263 27.8394 95.1446C28.1223 93.6627 27.9166 92.0918 27.2617 90.733Z" fill="#1E196B"/>
<path fill-rule="evenodd" clip-rule="evenodd" d="M21.6257 95.5635C21.6576 95.6247 21.6905 95.6899 21.6847 95.7588C21.6789 95.8274 21.6166 95.8959 21.5493 95.8812C21.5035 95.8712 21.4729 95.8287 21.4505 95.7876C21.3437 95.5919 21.3239 95.351 21.3971 95.1404C21.5326 95.2287 21.6085 95.4004 21.5829 95.5602L21.6257 95.5635Z" fill="#1E196B"/>
<path fill-rule="evenodd" clip-rule="evenodd" d="M30.6123 97.6584C30.7201 97.7411 30.6565 97.9512 30.5209 97.96C30.4498 97.8926 30.492 97.7498 30.588 97.7315L30.6123 97.6584Z" fill="#1E196B"/>
<path fill-rule="evenodd" clip-rule="evenodd" d="M20.912 95.787C20.8277 95.569 20.7766 95.2578 20.9878 95.1575C21.138 95.5788 21.2882 96.0004 21.4384 96.422C21.4609 96.485 21.4837 96.5521 21.4699 96.6177C21.4562 96.6833 21.3903 96.7428 21.326 96.724C21.2722 96.7085 21.2453 96.6497 21.2251 96.5974C21.1207 96.3273 21.0163 96.0573 20.912 95.787Z" fill="#1E196B"/>
<path fill-rule="evenodd" clip-rule="evenodd" d="M20.4686 95.3608C20.651 95.454 20.6252 95.7142 20.6291 95.9191C20.6373 96.3512 20.8933 96.7321 21.1004 97.1113C21.1418 97.1871 21.1827 97.274 21.158 97.3566C21.1333 97.4393 21.0062 97.4854 20.9597 97.4128C20.6609 96.9451 20.4481 96.4227 20.335 95.8793C20.2957 95.6904 20.2946 95.4444 20.4686 95.3608Z" fill="#1E196B"/>
<path fill-rule="evenodd" clip-rule="evenodd" d="M51.907 70.5718C45.8412 71.6837 39.8141 73.3379 34.3791 76.2519C34.2274 76.0365 34.5062 75.7807 34.7434 75.6659C41.2636 72.5136 48.341 70.5176 55.5476 69.7986C57.2197 69.6317 58.9229 69.5347 60.5677 69.8784C64.702 70.7421 67.8454 74.3134 69.375 78.2503C70.245 80.4899 70.8293 83.0811 72.8045 84.449C70.7611 84.2203 68.7999 83.537 66.859 82.8585C66.1033 82.5943 65.3478 82.3304 64.5923 82.0662C63.0362 81.5222 61.4802 80.9784 59.9242 80.4345C61.7332 80.7286 63.5121 81.2071 65.2242 81.86C65.0876 81.4701 64.8186 81.1279 64.4722 80.9027C61.7898 80.2124 58.9697 80.0615 56.2289 80.4617C55.7015 80.5384 55.5366 79.7873 55.227 79.3534C54.9272 78.9334 54.3858 78.7775 53.8859 78.6489C50.4207 77.7587 46.9557 76.8683 43.4905 75.9779C43.6396 75.8194 43.895 75.8506 44.108 75.8946C47.7114 76.6389 51.2748 77.5759 54.7783 78.6999C54.5251 78.1796 54.2721 77.6592 54.0189 77.1388C53.9795 77.0577 53.9391 76.9695 53.9552 76.881C53.9782 76.7566 54.1015 76.6805 54.2137 76.6216C57.394 74.9561 61.2508 74.6333 64.6636 75.7472C65.1343 75.9009 65.6766 76.1845 65.697 76.6792C65.7729 78.5265 67.23 79.9812 68.5891 81.2346C69.1908 81.7894 69.8151 82.3581 70.5866 82.6313C69.8982 80.4894 69.2033 78.334 68.136 76.3536C67.0687 74.3733 65.5951 72.5569 63.6507 71.425C60.1833 69.4065 55.8535 69.8482 51.907 70.5718ZM64.9767 76.6431C64.8671 76.4432 64.7353 76.225 64.5155 76.1646C63.0308 75.7559 61.5047 75.3435 59.9725 75.4968C59.2266 75.5714 58.5011 75.7785 57.7804 75.9849C56.7642 76.2757 55.7483 76.5668 54.7322 76.8576C54.6462 76.8821 54.5469 76.9201 54.5255 77.0069C54.5102 77.069 54.5428 77.132 54.5741 77.188C55.007 77.9568 55.44 78.7259 55.8729 79.4947C55.9576 79.6449 56.0507 79.8037 56.2044 79.882C56.3214 79.9414 56.4579 79.946 56.5893 79.9469C58.4816 79.9607 60.4035 79.5148 62.2469 79.9428C62.7323 80.0556 63.2055 80.2281 63.6999 80.2904C64.1945 80.3528 64.732 80.2902 65.1217 79.9793C65.5966 79.6001 65.7499 78.9244 65.6578 78.3237C65.566 77.7228 65.2688 77.176 64.9767 76.6431ZM72.0573 83.9505C71.6021 83.3069 70.7613 83.1003 70.06 82.7404C68.516 81.9481 67.572 80.3353 66.1767 79.3032C65.9181 79.7324 65.5513 80.0958 65.1199 80.351C65.0045 80.4192 64.8669 80.5102 64.8772 80.6438C64.8818 80.7011 64.9142 80.7516 64.9456 80.7995C65.1532 81.115 65.3607 81.4306 65.5682 81.7461C65.6994 81.9457 65.8352 82.15 66.0302 82.288C66.2021 82.4095 66.4081 82.471 66.6101 82.5305C68.4238 83.0647 70.2372 83.5986 72.0506 84.1328C72.121 84.116 72.0989 84.0095 72.0573 83.9505Z" fill="#1E196B"/>
<path fill-rule="evenodd" clip-rule="evenodd" d="M20.5629 94.1019C20.1611 92.9469 20.2081 91.6633 20.5663 90.4941C20.9246 89.3249 21.5805 88.2631 22.3635 87.3237C22.4258 87.2489 22.4906 87.1734 22.5737 87.1225C22.6375 87.0834 22.7112 87.06 22.786 87.0549C22.8369 87.2056 22.7304 87.36 22.6316 87.4846C21.9865 88.2983 21.3961 89.1679 21.0135 90.1333C20.631 91.0987 20.4653 92.1702 20.6818 93.1859C20.75 93.5058 20.827 93.9086 20.5629 94.1019Z" fill="#1E196B"/>
<path fill-rule="evenodd" clip-rule="evenodd" d="M27.3529 92.7232C27.747 94.5003 27.0501 96.4742 25.6274 97.61C25.6106 97.6233 25.5933 97.6369 25.5728 97.6436C25.4919 97.6708 25.4151 97.571 25.4282 97.4866C25.4413 97.4022 25.5083 97.3379 25.5701 97.2791C25.9246 96.9426 26.2421 96.5652 26.4938 96.1462C27.0534 95.2153 27.2701 94.0833 27.0936 93.0114C27.0772 92.9117 27.0595 92.8008 27.1148 92.716C27.1699 92.6309 27.3311 92.6244 27.3529 92.7232Z" fill="#1E196B"/>
<path fill-rule="evenodd" clip-rule="evenodd" d="M26.6653 87.105C26.6986 87.1725 26.7298 87.251 26.7021 87.3212C26.6745 87.3914 26.5573 87.4185 26.5269 87.3496C26.3697 86.9926 26.1156 86.6788 25.799 86.4507C25.7098 86.3866 25.795 86.2279 25.9048 86.2224C26.0146 86.217 26.1064 86.3011 26.1795 86.3831C26.3734 86.6001 26.5372 86.8437 26.6653 87.105Z" fill="#1E196B"/>
<path fill-rule="evenodd" clip-rule="evenodd" d="M26.1028 85.7888C26.0313 85.725 26.1163 85.5951 26.2121 85.596C26.3079 85.597 26.384 85.6731 26.4465 85.7457C26.8158 86.1754 27.1051 86.6735 27.2949 87.2073C27.322 87.2834 27.3463 87.3706 27.3083 87.4417C27.2702 87.513 27.141 87.525 27.1202 87.4472C26.9521 86.8111 26.5937 86.2268 26.1028 85.7888Z" fill="#1E196B"/>
<path fill-rule="evenodd" clip-rule="evenodd" d="M26.0864 87.8514C25.9218 87.7143 25.7571 87.5775 25.5923 87.4404C25.526 87.3852 25.5982 87.2659 25.6841 87.2626C25.7703 87.2593 25.8426 87.3231 25.9047 87.3828C26.0038 87.4777 26.1028 87.5729 26.2017 87.668C26.2686 87.7321 26.3311 87.8541 26.2513 87.9009C26.1982 87.9317 26.1337 87.8906 26.0864 87.8514Z" fill="#1E196B"/>
<path fill-rule="evenodd" clip-rule="evenodd" d="M93.9356 109.097C93.6288 110.879 92.6673 112.54 91.2755 113.693C90.5078 114.33 89.6224 114.81 88.7136 115.221C87.6824 115.687 86.6129 116.068 85.5195 116.36C85.5351 116.071 85.8718 115.931 86.1502 115.852C87.7755 115.392 89.3751 114.755 90.7212 113.735C92.0671 112.714 93.1473 111.277 93.4982 109.625C93.5512 109.375 93.6852 109.049 93.9356 109.097Z" fill="#1E196B"/>
<path fill-rule="evenodd" clip-rule="evenodd" d="M24.6315 93.4365C24.4168 93.5039 24.174 93.4262 24.0063 93.2762C23.8386 93.1262 23.738 92.9135 23.6816 92.6957C23.6307 92.4991 23.6121 92.2942 23.6272 92.0919C23.6549 91.7178 23.7973 91.357 24.0081 91.0467C24.1139 90.8908 24.2482 90.739 24.4294 90.687C24.7327 90.6002 25.05 90.835 25.1806 91.1224C25.3037 91.3935 25.3078 91.7023 25.2954 91.9999C25.279 92.3908 25.2315 92.7987 25.0137 93.1236C24.9204 93.2631 24.7916 93.3862 24.6315 93.4365ZM24.5042 91.0161C23.8893 91.4399 23.7035 92.3758 24.11 93.0022C24.1977 93.1372 24.3328 93.2681 24.4931 93.255C24.6813 93.2395 24.7926 93.0407 24.8591 92.8638C25.0802 92.2758 25.1659 91.5652 24.7948 91.0585C24.764 91.0161 24.7264 90.9734 24.6752 90.9619C24.6151 90.9481 24.555 90.9811 24.5042 91.0161Z" fill="#1E196B"/>
<path fill-rule="evenodd" clip-rule="evenodd" d="M23.078 88.572C22.3 89.2289 21.9436 90.2481 21.6623 91.2268C21.5267 91.6989 21.3999 92.1782 21.3759 92.6689C21.3655 92.881 21.3644 93.1192 21.2127 93.2676C21.0459 93.1935 21.0295 92.9665 21.0443 92.7846C21.1684 91.2693 21.7065 89.7898 22.5851 88.5488C22.6671 88.4329 22.7697 88.3089 22.9112 88.2974C23.0526 88.286 23.1865 88.4804 23.078 88.572Z" fill="#1E196B"/>
<path fill-rule="evenodd" clip-rule="evenodd" d="M82.1355 111.63C82.2086 111.697 82.1226 111.831 82.0231 111.834C81.9236 111.837 81.8406 111.762 81.7715 111.691C81.3232 111.227 80.9622 110.679 80.7129 110.085C80.7818 110.001 80.9202 110.013 81.0057 110.079C81.091 110.145 81.1375 110.248 81.1848 110.345C81.4183 110.828 81.7426 111.266 82.1355 111.63Z" fill="#1E196B"/>
<path fill-rule="evenodd" clip-rule="evenodd" d="M82.64 110.871C82.3385 110.618 82.0833 110.31 81.8911 109.966C81.8662 109.922 81.8415 109.872 81.8522 109.822C81.8699 109.739 81.9814 109.706 82.0603 109.739C82.1393 109.771 82.1915 109.846 82.2394 109.916C82.4216 110.185 82.6035 110.454 82.7857 110.723C82.7371 110.772 82.6886 110.821 82.64 110.871Z" fill="#1E196B"/>
<path fill-rule="evenodd" clip-rule="evenodd" d="M79.6375 110.67C79.7604 111.031 79.9104 111.383 80.0858 111.722C80.3243 112.183 80.6119 112.622 80.9753 112.992C81.0525 113.071 80.9432 113.213 80.8336 113.203C80.7238 113.193 80.6436 113.099 80.5776 113.011C80.1756 112.476 79.8247 111.903 79.531 111.303C79.4759 111.19 79.4215 111.07 79.4261 110.945C79.4304 110.819 79.5131 110.687 79.6375 110.67Z" fill="#1E196B"/>
<path fill-rule="evenodd" clip-rule="evenodd" d="M42.0326 77.4527C41.6086 81.1278 42.2723 84.8318 42.9333 88.4718C43.0457 89.0906 43.1583 89.7099 43.3096 90.3202C43.7922 92.265 44.6732 94.1099 45.8827 95.7075C46.0427 95.9189 46.2094 96.2224 46.0357 96.4227C43.7911 95.0285 41.5975 93.5525 39.4602 91.9989C39.2654 91.8572 39.0605 91.701 38.9813 91.4736C37.3949 86.9151 36.904 82.06 36.4242 77.2572C36.4164 77.179 36.4089 77.0976 36.4363 77.0239C36.4833 76.8969 36.6175 76.8282 36.7404 76.7714C38.4005 76.0027 40.0609 75.2339 41.721 74.4653C42.7697 73.9796 43.839 73.4881 44.985 73.3396C44.521 73.7481 43.935 74.0162 43.3227 74.0999C42.9856 74.146 42.7137 74.4181 42.5729 74.7281C42.4323 75.038 42.3997 75.3844 42.3691 75.7233C43.1839 75.1609 43.9984 74.5985 44.8129 74.0358C45.0218 73.8917 45.3797 73.7876 45.4676 74.0258C44.5337 74.6044 43.6188 75.2131 42.7247 75.8512C42.2366 76.1998 42.1013 76.8571 42.0326 77.4527ZM44.3356 93.8136C44.062 93.3459 43.7874 92.8757 43.586 92.3726C43.3582 91.8027 43.2278 91.1996 43.0986 90.5996C42.5296 87.959 41.9593 85.3101 41.7166 82.6196C41.4739 79.9291 41.5662 77.1811 42.3044 74.5825C41.4652 74.8819 40.6605 75.2693 39.858 75.6559C38.8637 76.135 37.8696 76.6139 36.8756 77.093C36.8268 77.1164 36.7756 77.142 36.7466 77.1877C36.7109 77.2439 36.7175 77.3163 36.7251 77.3825C36.8664 78.5754 37.0076 79.7684 37.1489 80.9612C37.3639 82.7788 37.5792 84.5983 37.9322 86.394C38.1994 87.7528 38.5449 89.0963 38.9667 90.4153C39.1534 90.9991 39.3856 91.6195 39.8947 91.961C41.7365 93.1967 43.5784 94.4322 45.4202 95.6677C45.0585 95.0497 44.6971 94.4318 44.3356 93.8136Z" fill="#1E196B"/>
<path fill-rule="evenodd" clip-rule="evenodd" d="M89.8531 102.967C90.1737 103.275 90.4343 103.645 90.6165 104.05C90.6337 104.088 90.6508 104.13 90.6451 104.172C90.6313 104.275 90.4855 104.311 90.3952 104.259C90.3049 104.207 90.2581 104.105 90.2121 104.011C90.0169 103.613 89.7413 103.254 89.4072 102.963C89.4116 102.868 89.522 102.808 89.6154 102.822C89.7085 102.837 89.7851 102.902 89.8531 102.967Z" fill="#1E196B"/>
<path fill-rule="evenodd" clip-rule="evenodd" d="M91.3243 108.323C91.3521 108.252 91.4702 108.271 91.5051 108.339C91.5403 108.407 91.5189 108.489 91.4955 108.561C90.8012 110.71 88.84 112.228 86.762 113.111C86.6573 113.156 86.5373 113.199 86.4334 113.153C86.3295 113.106 86.3013 112.924 86.41 112.89C88.6176 112.202 90.4765 110.475 91.3243 108.323Z" fill="#1E196B"/>
<path fill-rule="evenodd" clip-rule="evenodd" d="M88.9128 104.137C89.1111 104.386 89.2672 104.668 89.3731 104.968C89.3831 104.997 89.3927 105.028 89.3838 105.057C89.3527 105.158 89.1997 105.088 89.1328 105.006C88.9259 104.753 88.7193 104.499 88.5124 104.245C88.4796 104.205 88.4453 104.161 88.4409 104.109C88.4317 104.003 88.5596 103.927 88.6637 103.949C88.768 103.97 88.8465 104.054 88.9128 104.137Z" fill="#1E196B"/>
<path fill-rule="evenodd" clip-rule="evenodd" d="M91.8608 103.528C91.7497 103.458 91.7147 103.316 91.6821 103.188C91.5059 102.496 91.1278 101.857 90.6065 101.368C90.5324 101.299 90.4512 101.225 90.4309 101.126C90.4104 101.027 90.4926 100.903 90.5912 100.927C90.6295 100.936 90.6599 100.965 90.6881 100.992C91.2555 101.549 91.6948 102.235 91.9625 102.983C92.0318 103.177 92.0539 103.456 91.8608 103.528Z" fill="#1E196B"/>
<path fill-rule="evenodd" clip-rule="evenodd" d="M85.226 106.153C85.5645 106.099 85.9234 106.186 86.1995 106.389C86.3108 106.471 86.4088 106.571 86.4923 106.681C86.7668 107.042 86.8787 107.523 86.7923 107.968C86.706 108.414 86.4228 108.818 86.0331 109.051C85.9398 109.106 85.8392 109.154 85.7318 109.17C85.6507 109.182 85.5678 109.177 85.4869 109.164C85.0806 109.097 84.7259 108.822 84.5099 108.472C84.2014 107.971 84.1668 107.313 84.4213 106.783C84.5108 106.598 84.6361 106.424 84.8075 106.31C84.9321 106.226 85.0776 106.176 85.226 106.153ZM85.9654 108.584C86.1473 108.396 86.2769 108.159 86.3356 107.904C86.4342 107.478 86.3067 106.982 85.9507 106.728C85.5945 106.474 85.015 106.558 84.8141 106.947C84.6461 107.272 84.6256 107.669 84.7592 108.01C84.8928 108.35 85.1786 108.628 85.5228 108.752C85.68 108.808 85.8488 108.703 85.9654 108.584Z" fill="#1E196B"/>
<path fill-rule="evenodd" clip-rule="evenodd" d="M83.4767 104.543C84.6129 103.7 86.3301 103.694 87.4735 104.527C88.9841 102.532 90.2491 100.363 91.2335 98.0796C91.4073 97.6764 91.054 97.255 90.729 96.9521C89.2565 95.5798 87.6795 94.1665 85.6973 93.6874C83.7072 93.2066 81.3585 93.5584 79.6186 94.6111C77.8786 95.6635 76.4877 97.1739 75.2135 98.7316C75.1683 98.4152 75.3898 98.1268 75.6019 97.8821C76.9025 96.3816 78.363 94.9662 80.1469 94.0437C81.9308 93.1209 84.2886 92.9392 86.209 93.553C86.7961 93.7406 87.35 94.0163 87.8798 94.3253C90.5725 95.896 92.6601 98.3402 94.0353 101.079C95.4105 103.818 96.1021 106.844 96.3689 109.878C96.4391 110.677 96.4804 111.485 96.3525 112.277C96.2311 113.028 95.9591 113.751 95.6215 114.437C94.6832 116.343 93.2061 118.012 91.3511 119.12C88.2211 120.99 84.1106 121.12 80.7755 119.62C77.4407 118.12 74.929 115.083 73.9512 111.648C76.939 110.989 79.8123 109.845 82.4153 108.278C81.8844 106.99 82.3405 105.385 83.4767 104.543ZM90.0975 119.334C90.0258 119.29 89.9228 119.332 89.8944 119.419C90.0415 119.423 90.1894 119.366 90.3033 119.262C90.2536 119.172 90.0997 119.219 90.0988 119.325L90.0975 119.334ZM78.8567 118.097C80.6233 119.318 82.7289 120.117 84.9005 120.224C86.2942 120.292 87.7022 120.075 89.0042 119.591C89.522 119.398 90.0223 119.164 90.5217 118.931C91.0951 118.662 91.6726 118.392 92.1821 118.023C92.5099 117.786 92.8059 117.51 93.0891 117.225C94.1647 116.139 95.0757 114.875 95.5675 113.451C96.5635 110.567 95.7516 107.425 94.9014 104.497C92.8886 104.699 90.9208 105.312 89.1669 106.284C89.6423 107.649 89.3785 109.275 88.3473 110.316C87.3161 111.358 85.5088 111.664 84.2572 110.878C84.0184 110.728 83.7116 110.917 83.5017 111.102C81.753 112.645 80.3747 114.575 79.5049 116.699C79.3103 117.175 79.1386 117.664 78.8567 118.097ZM83.2336 110.675C83.2896 110.621 83.3495 110.56 83.3534 110.483C83.3567 110.42 83.3208 110.363 83.2865 110.309C82.9145 109.735 82.5428 109.16 82.1709 108.585C79.7419 110.16 77.0066 111.28 74.1556 111.867C75.0926 114.138 76.5905 116.185 78.4854 117.783C79.5237 115.118 81.1551 112.675 83.2336 110.675ZM83.6311 110.177C84.3383 110.794 85.3312 111.135 86.2877 111.014C86.5518 110.981 86.8121 110.914 87.053 110.806C87.2741 110.708 87.4775 110.576 87.6653 110.429C88.3983 109.853 88.8964 109.019 89.0376 108.13C89.1336 107.528 89.0621 106.886 88.7263 106.366C88.5964 106.165 88.4306 105.986 88.2658 105.809C87.9189 105.437 87.5669 105.06 87.1311 104.783C86.31 104.261 85.2132 104.146 84.2904 104.486C83.3676 104.826 82.6449 105.611 82.4186 106.518C82.3154 106.932 82.3106 107.365 82.3694 107.786C82.4949 108.686 82.9237 109.56 83.6311 110.177ZM94.8002 104.05C94.3248 101.823 93.2785 99.7117 91.7808 97.9567C90.8685 100.277 89.5482 102.447 87.8931 104.346C87.8055 104.447 87.8697 104.599 87.9364 104.713C88.1048 105.002 88.28 105.299 88.5498 105.504C88.8194 105.71 89.2106 105.803 89.5113 105.643C91.1386 104.774 92.9498 104.228 94.8002 104.05Z" fill="#1E196B"/>
<path fill-rule="evenodd" clip-rule="evenodd" d="M117.17 83.6474C105.45 83.6741 93.7304 83.7007 82.0108 83.7276C78.9024 83.7346 75.9953 81.9997 73.893 79.7101C71.7907 77.4204 70.2236 74.2301 68.8269 71.453C69.9885 71.1141 71.456 71.4211 72.6343 71.1418C75.5227 70.4574 77.9385 69.2202 80.8593 68.7995C87.7086 67.8124 95.1207 68.2799 102.026 69.1124C93.6023 66.495 84.8077 65.0738 75.9885 64.9053C66.443 64.7229 56.9201 65.9995 47.5561 67.861C39.6354 69.4354 31.7984 71.43 24.0886 73.8336C25.7527 73.655 28.1086 73.9309 28.3955 75.8849C27.5149 73.8927 24.4829 73.7927 22.7939 75.1677C21.1046 76.5427 20.4263 78.7755 19.8349 80.8716C20.3568 78.4248 23.5376 77.3128 25.878 78.1973C28.2181 79.0818 29.7687 81.3192 30.8192 83.5899C32.2527 86.689 33.0314 90.0585 33.4473 93.4476C33.8626 96.831 33.6717 100.821 30.9442 102.866C28.4786 104.714 24.7562 104.061 22.4466 102.021C20.1372 99.9803 19.0217 96.8936 18.5142 93.8539C17.5278 87.9459 18.5591 81.7198 21.3978 76.4456C22.0329 75.2657 22.8529 74.0523 24.1232 73.6257C36.3206 69.5287 48.9611 66.7523 61.7526 65.3599C71.3654 64.3135 81.1508 64.0542 90.6492 65.8654C100.148 67.6766 109.39 71.6649 116.433 78.2907C119.19 80.885 123.219 81.5624 127.002 81.7157C130.785 81.8688 134.673 81.6333 138.256 82.8569C144.329 84.9312 148.246 90.6856 151.72 96.0821C152.658 97.5393 153.605 99.0159 154.153 100.66C155.846 105.743 153.526 111.753 156.079 116.464C154.525 116.94 152.855 117.036 151.256 116.742C151.562 118.162 149.676 118.943 148.236 119.14C141.887 120.004 135.538 120.869 129.189 121.733C128.975 121.093 129.173 120.335 129.674 119.883C118.985 118.809 108.289 117.799 97.5873 116.852C96.3899 116.747 94.9687 116.735 94.2502 117.699C90.3282 122.958 81.4897 123.449 77.0092 118.657C75.3585 116.891 74.1414 114.495 71.8679 113.674C62.8481 110.415 53.8284 107.157 44.8086 103.899C41.0525 102.542 37.2252 101.17 33.2357 100.994C35.5806 100.389 38.0312 101.214 40.3115 102.03C51.1514 105.907 61.9912 109.783 72.8309 113.66C71.5419 109.168 70.8927 104.341 72.1334 99.8351C73.3741 95.3294 76.8155 91.224 81.3799 90.222C87.2717 88.9286 93.332 93.2302 95.6984 98.7785C98.0646 104.327 97.4604 110.702 95.9645 116.545C101.307 116.304 106.674 116.639 111.945 117.543C108.748 112.08 106.159 106.26 104.243 100.227C106.64 105.409 109.036 110.591 111.432 115.774C111.954 116.903 112.748 118.212 113.992 118.181C111.265 112.461 108.538 106.741 105.81 101.022C121.442 103.988 137.617 106.819 153.13 103.285C148.436 103.247 143.793 104.438 139.099 104.354C133.924 104.26 128.788 102.569 124.57 99.5687C125.096 100.374 123.684 101.01 122.724 100.955C118.044 100.688 113.363 100.421 108.683 100.155C107.203 100.07 105.666 99.97 104.371 99.2508C102.097 97.9891 101.197 95.2328 100.491 92.7302C108.9 93.2829 117.183 95.6758 124.591 99.6925C133.032 104.269 143.313 105.323 152.507 102.554C150.64 96.6235 148.548 90.348 143.742 86.4039C138.149 81.8141 130.268 81.4983 123.041 81.836C133.292 84.3882 142.5 90.9095 148.311 99.7316C142.292 91.3047 133.38 84.9854 123.436 82.0944C122.299 81.7638 120.809 81.5994 120.178 82.6011C119.586 83.5409 118.281 83.6448 117.17 83.6474ZM78.0453 93.3722C80.6719 91.6283 84.1388 91.0101 87.058 92.2014C87.8013 92.5049 88.4971 92.9158 89.1575 93.3726C91.6037 95.0644 93.5911 97.4129 94.8548 100.106C96.3925 103.382 96.8412 107.062 96.9562 110.68C97.0496 109.679 97.0913 108.674 97.0808 107.669C97.0424 103.978 96.2685 100.233 94.3814 97.0604C92.4943 93.8875 89.4153 91.337 85.8103 90.5413C82.2056 89.7456 78.1233 90.8984 75.8013 93.7684C75.1121 94.6203 74.5877 95.5918 74.0929 96.5697C73.4065 97.9261 72.7634 99.323 72.4542 100.811C73.5751 97.8647 75.4188 95.116 78.0453 93.3722ZM69.3456 71.6774C70.9473 74.8056 72.595 77.9964 75.1309 80.4295C77.6667 82.8626 81.3003 84.4411 84.7192 83.6273C88.1912 82.8005 91.8086 82.9092 95.3759 83.0229C101.674 83.2232 107.972 83.4237 114.27 83.6242C116.632 83.6994 119.396 83.5886 120.776 81.6698C117.402 79.4741 114.401 76.7568 111.151 74.3792C107.902 72.0016 104.3 69.9265 100.324 69.2904C98.6034 69.0151 96.8519 69.016 95.1094 69.0173C91.4602 69.0206 87.8109 69.0236 84.1618 69.0269C82.674 69.028 81.168 69.0315 79.7266 69.3999C78.5731 69.6945 77.4922 70.2151 76.374 70.6227C74.1333 71.4395 71.7273 71.8005 69.3456 71.6774ZM112.184 108.448C113.208 111.561 114.386 114.623 115.712 117.619C115.832 117.891 116.006 118.201 116.302 118.227C121.167 118.654 126.032 119.08 130.897 119.506C131.11 119.524 131.335 119.542 131.531 119.453C131.709 119.373 131.838 119.217 131.961 119.066C133.05 117.729 134.139 116.393 135.228 115.057C134.123 113.479 132.35 112.469 130.505 111.917C128.659 111.365 126.719 111.226 124.799 111.073C124.539 111.052 124.186 110.815 124.37 110.631C126.28 110.734 128.183 110.974 130.059 111.349C131.342 111.606 132.701 111.979 133.546 112.978C134.681 110.878 135.815 108.777 136.95 106.678C142.473 105.958 147.977 105.091 153.454 104.08C148.758 104.5 144.061 104.921 139.365 105.341C138.324 105.434 137.281 105.528 136.236 105.531C134.935 105.535 133.637 105.399 132.343 105.263C130.772 105.098 129.201 104.933 127.629 104.768C120.545 104.024 113.426 103.274 106.548 101.424C108.821 106.933 111.437 112.301 114.375 117.487C114.602 117.889 115.035 118.355 115.437 118.127C113.378 113.303 111.597 108.36 110.104 103.331C110.001 102.985 109.921 102.552 110.19 102.311C110.842 104.255 111.474 106.205 112.088 108.161C115.488 108.19 118.884 108.664 122.163 109.564C123.506 109.933 125.049 110.345 126.202 109.564C124.847 108.239 123.151 107.266 121.323 106.764C120.298 106.483 119.239 106.349 118.184 106.216C115.905 105.928 113.626 105.64 111.347 105.352C114.497 105.102 117.649 105.657 120.76 106.21C121.375 106.319 121.994 106.43 122.574 106.66C123.185 106.903 123.737 107.272 124.283 107.639C125.243 108.284 126.204 108.929 127.165 109.574C126.432 110.218 125.399 110.427 124.424 110.374C123.449 110.32 122.505 110.031 121.558 109.791C118.496 109.014 115.332 108.73 112.184 108.448ZM82.2909 121.769C82.5019 121.843 82.7737 121.896 82.9182 121.726C82.3029 121.668 81.7086 121.405 81.2514 120.989C84.361 122.331 88.1249 122.035 90.9864 120.224C91.687 119.78 92.3318 119.255 92.9704 118.726C94.035 117.844 95.1159 116.909 95.7269 115.669C96.1931 114.722 96.3542 113.657 96.4561 112.607C96.7872 109.194 96.5436 105.697 95.4596 102.444C94.3757 99.1907 92.4224 96.1899 89.7019 94.1023C88.4188 93.1176 86.9537 92.3335 85.3675 92.0177C83.0339 91.5528 80.5571 92.1472 78.5353 93.4021C76.5137 94.6568 74.9255 96.5332 73.771 98.6138C71.9173 101.955 71.1433 105.981 72.1176 109.676C72.4424 110.907 72.9519 112.083 73.5329 113.216C75.4409 116.937 78.3455 120.384 82.2909 121.769ZM135.02 115.987C133.972 117.396 132.783 118.692 131.596 119.986C131.401 120.198 131.026 120.401 130.877 120.155C130.738 119.927 130.393 119.91 130.165 120.048C129.936 120.185 129.797 120.429 129.668 120.662C129.566 120.846 129.464 121.03 129.362 121.214C135.936 120.454 142.494 119.56 149.032 118.533C149.529 118.455 150.076 118.347 150.379 117.945C150.498 117.786 150.566 117.596 150.632 117.41C151.331 115.426 151.945 113.413 152.472 111.377C151.22 111.726 149.967 112.074 148.714 112.423C148.206 112.565 147.696 112.707 147.183 112.83C143.833 113.635 140.331 113.653 136.984 114.473C136.758 114.528 136.532 114.587 136.323 114.689C135.765 114.958 135.389 115.489 135.02 115.987ZM124.259 100.474C121.913 98.2117 118.694 97.1472 115.592 96.151C114.416 95.7733 113.24 95.3957 112.064 95.0181C111.357 94.7909 110.65 94.5637 109.934 94.3651C106.974 93.5442 103.9 93.2213 100.837 92.9871C100.795 92.9838 100.751 92.981 100.713 92.9985C100.593 93.0533 100.631 93.2322 100.689 93.3509C101.365 94.7469 102.104 96.1118 102.905 97.4402C103.251 98.0142 103.617 98.5919 104.135 99.0175C104.824 99.5838 105.728 99.8318 106.617 99.8959C107.507 99.9601 108.399 99.8558 109.288 99.7948C111.269 99.659 113.265 99.7386 115.229 100.031C116.301 100.191 117.363 100.414 118.437 100.553C120.368 100.801 122.335 100.775 124.259 100.474ZM150.12 111.551C150.901 111.343 151.695 111.183 152.495 111.071C152.855 109.738 153.215 108.406 153.574 107.073C152.819 107.292 152.053 107.473 151.279 107.616C150.666 107.729 150.05 107.818 149.432 107.904C145.067 108.511 140.678 108.953 136.278 109.231C136.036 109.246 135.884 109.492 135.774 109.709C135.208 110.825 134.642 111.941 134.076 113.057C134.033 113.142 133.988 113.24 134.018 113.331C134.039 113.395 134.092 113.441 134.143 113.485C134.4 113.705 134.658 113.926 134.915 114.146C135.159 114.355 135.47 114.577 135.771 114.467C139.362 113.158 143.335 113.402 147.037 112.452C148.074 112.186 149.085 111.827 150.12 111.551ZM22.8507 95.0955C22.2689 96.224 21.6871 97.3525 21.1053 98.4811C21.0016 98.6823 20.8951 98.8959 20.9079 99.1218C20.9178 99.2952 20.9975 99.4561 21.0805 99.6087C21.961 101.226 23.418 102.522 25.1273 103.208C25.342 103.294 25.5723 103.372 25.8003 103.334C26.0901 103.287 26.3159 103.065 26.5119 102.846C28.3001 100.851 29.3023 98.2051 29.458 95.5306C29.6137 92.8561 28.9483 90.1623 27.7211 87.7808C27.49 88.0168 27.2588 88.2527 27.0277 88.4887C26.5134 89.0135 25.9565 89.7075 26.1959 90.402C26.7098 91.8916 26.677 93.6468 25.7662 94.9326C25.3599 95.5061 24.6858 95.9931 23.9985 95.8453C23.5806 95.7554 23.2432 95.4473 22.9787 95.1116C22.6611 94.7091 22.4162 94.2492 22.2592 93.7612C21.7103 94.4782 20.9408 95.0242 20.0825 95.3054C19.7457 95.4156 19.7509 95.8903 19.8328 96.2352C20.0418 97.1151 20.3129 97.9803 20.6433 98.8222C21.1272 97.5994 21.7284 96.4232 22.4357 95.3148C22.5299 95.1674 22.7034 95.0012 22.8507 95.0955ZM25.4642 83.8254C27.3349 85.573 28.3767 88.0271 29.1221 90.4759C29.2798 90.9939 29.4267 91.5157 29.5402 92.0453C30.4037 96.0729 29.1779 100.491 26.3625 103.498C27.4152 103.453 28.4595 103.22 29.4319 102.815C29.627 102.733 29.824 102.642 29.9723 102.491C30.1971 102.262 30.2773 101.932 30.3488 101.62C30.7947 99.6652 31.2425 97.6985 31.3413 95.6964C31.4793 92.895 30.9285 90.097 30.0971 87.4183C29.9384 86.9064 29.7689 86.3973 29.5647 85.9016C28.8977 84.2835 27.8558 82.821 26.544 81.6623C25.7461 80.9576 24.6834 80.3348 23.6655 80.6469C23.0349 80.8402 22.5617 81.3571 22.158 81.879C20.0567 84.5949 18.9645 88.0734 19.1364 91.503C19.5109 89.1552 20.4109 86.8926 21.7514 84.9292C22.1066 84.4088 22.5041 83.8984 23.0377 83.5636C23.5712 83.2289 24.2686 83.0966 24.8382 83.3653C25.0733 83.4764 25.2742 83.6478 25.4642 83.8254ZM137.217 107.057C137.091 107.161 137.015 107.312 136.942 107.458C136.713 107.916 136.485 108.374 136.256 108.832C142.043 108.41 147.856 107.984 153.515 106.701C153.719 106.119 153.788 105.49 153.716 104.878C153.707 104.803 153.694 104.725 153.646 104.667C153.556 104.558 153.387 104.571 153.247 104.594C149.509 105.199 145.772 105.804 142.034 106.409C140.702 106.624 139.364 106.84 138.015 106.867C137.736 106.872 137.431 106.878 137.217 107.057ZM22.5628 90.4086C22.7987 89.6623 23.2531 88.9538 23.9386 88.5764C24.5603 88.2341 24.8137 87.4867 25.0153 86.8065C25.2239 86.1026 25.4323 85.3987 25.6409 84.695C25.6744 84.5815 25.5849 84.472 25.5025 84.3874C25.1006 83.9756 24.634 83.5348 24.0586 83.5313C23.5809 83.5282 23.1586 83.8339 22.8136 84.1645C21.7735 85.1612 21.1058 86.4791 20.5313 87.8003C20.3239 88.2772 20.1258 88.7585 19.962 89.252C19.3354 91.14 19.2264 93.1966 19.6498 95.1401C20.2334 94.9131 20.826 94.6809 21.3215 94.298C21.817 93.9151 22.2107 93.3533 22.2435 92.728C22.2844 91.9462 22.327 91.1549 22.5628 90.4086ZM25.3254 80.3956C26.9857 81.3768 28.3677 82.8235 29.2723 84.5269C29.4494 84.8606 29.6086 85.2039 29.7595 85.5504C32.0511 90.8181 32.3319 96.9318 30.5327 102.388C30.9138 102.042 31.4277 101.875 31.8204 101.543C32.6243 100.864 32.7426 99.6886 32.788 98.6374C32.9851 94.0959 32.8982 89.3994 31.0967 85.2257C30.4369 83.6977 29.5551 82.2659 28.4873 80.9891C28.3128 80.7805 28.1254 80.5699 27.8783 80.4566C27.6157 80.3363 27.3155 80.3392 27.0268 80.3453C26.4596 80.3576 25.8924 80.3742 25.3254 80.3956ZM154.918 106.425C154.863 105.81 154.585 105.241 154.379 104.658C154.173 104.075 154.041 103.421 154.276 102.849C154.568 102.142 154.538 101.332 154.317 100.599C154.096 99.8666 153.696 99.2011 153.257 98.574C152.411 97.3639 151.409 96.2634 150.283 95.308C150.737 98.204 152.206 100.823 153.581 103.412C153.831 103.883 154.083 104.367 154.156 104.895C154.217 105.338 154.149 105.788 154.074 106.229C153.785 107.928 153.395 109.609 152.907 111.261C152.803 111.612 152.977 111.979 153.156 112.298C153.803 113.452 154.585 114.531 155.479 115.505C155.219 114.681 154.958 113.857 154.698 113.033C154.364 111.975 154.025 110.875 154.179 109.776C154.338 108.637 155.02 107.571 154.918 106.425ZM24.8651 78.3677C23.8614 78.0795 22.685 78.1936 21.9146 78.8988C20.4026 80.2825 19.4606 82.2134 19.0239 84.2159C18.5873 86.2185 18.6277 88.2982 18.856 90.3351C18.8814 87.1679 20.0156 84.0204 22.0163 81.565C22.3769 81.1224 22.7773 80.6921 23.2887 80.438C23.8553 80.1568 24.5071 80.1161 25.1386 80.0805C25.9416 80.0355 26.7443 79.9904 27.547 79.9451C26.7349 79.2885 25.869 78.6561 24.8651 78.3677ZM24.7061 88.797C24.2548 88.7132 23.7936 88.9669 23.5065 89.3251C23.2192 89.683 23.0736 90.1313 22.9424 90.5713C22.7259 91.2979 22.5321 92.0403 22.5157 92.7982C22.4991 93.5563 22.6736 94.3393 23.1315 94.9435C23.3626 95.2485 23.6804 95.5107 24.0578 95.5743C24.7007 95.683 25.2996 95.193 25.6475 94.6415C26.3756 93.4881 26.4115 92 26.0339 90.6893C26.0022 90.5796 25.967 90.4685 25.9018 90.3747C25.8283 90.2686 25.719 90.1875 25.6648 90.0705C25.6105 89.9533 25.6521 89.7753 25.7802 89.7591C25.5331 89.3284 25.1946 88.8875 24.7061 88.797ZM155.671 116.349C155.12 115.637 154.569 114.925 154.018 114.214C153.512 113.561 152.997 112.89 152.754 112.101C152.341 113.424 151.929 114.748 151.516 116.072C151.489 116.159 151.462 116.256 151.503 116.338C151.561 116.453 151.714 116.471 151.842 116.475C152.863 116.501 153.884 116.529 154.905 116.556C155.179 116.563 155.491 116.554 155.671 116.349ZM27.5333 87.3774C27.5704 87.2267 27.502 87.0719 27.4318 86.9333C27.08 86.2366 26.6474 85.5808 26.1456 84.983C26.0728 84.8964 25.9024 84.8302 25.8788 84.9406C25.6149 86.1745 25.1966 87.3752 24.6368 88.5062C25.1745 88.6525 25.6508 89.0122 25.9385 89.4893C26.3068 88.8287 26.7701 88.2212 27.3096 87.6914C27.4025 87.6 27.502 87.504 27.5333 87.3774ZM96.8388 111.763C96.8692 111.671 96.8464 111.564 96.7817 111.492C96.7111 111.703 96.7122 111.937 96.7848 112.147C96.8519 112.034 96.8714 111.893 96.8375 111.767L96.8388 111.763ZM97.6203 116.726C97.5661 116.75 97.5118 116.774 97.4576 116.798C97.6312 116.88 97.8414 116.88 98.015 116.798C97.898 116.738 97.7598 116.721 97.6319 116.75L97.6203 116.726Z" fill="#1E196B"/>
<path fill-rule="evenodd" clip-rule="evenodd" d="M95.9849 110.849C95.8156 110.849 95.6623 110.918 95.5513 111.029C95.4404 111.14 95.3717 111.293 95.3717 111.463C95.3717 111.567 95.3977 111.665 95.4439 111.751C95.4684 111.796 95.4988 111.839 95.5351 111.877C95.4918 111.907 95.4526 111.942 95.4185 111.981C95.3256 112.089 95.2694 112.229 95.2694 112.382C95.2694 112.504 95.3048 112.617 95.3658 112.713C95.429 112.811 95.5195 112.89 95.6267 112.939L95.9547 113.09L95.6571 113.294C95.3612 113.496 95.1673 113.836 95.1673 114.222C95.1673 114.369 95.1955 114.51 95.2471 114.639C95.2683 114.692 95.2934 114.743 95.323 114.793C95.2714 114.82 95.2215 114.85 95.1734 114.883C94.7955 115.144 94.5541 115.582 94.5541 116.164C94.5541 116.24 94.5583 116.313 94.5662 116.384C94.4955 116.374 94.4234 116.368 94.3497 116.368C93.9546 116.368 93.5968 116.528 93.3379 116.787C93.079 117.046 92.9189 117.404 92.9189 117.799C92.9189 118.194 93.079 118.552 93.3379 118.811C93.5968 119.069 93.9546 119.23 94.3497 119.23C94.7481 119.23 95.1087 119.066 95.3674 118.792C95.6243 118.518 95.7804 118.136 95.7804 117.697C95.7804 117.621 95.7758 117.548 95.7671 117.476C95.8381 117.487 95.9107 117.492 95.9849 117.492C96.38 117.492 96.7377 117.332 96.9966 117.073C97.2555 116.814 97.4156 116.457 97.4156 116.062C97.4156 115.742 97.3113 115.448 97.1348 115.21C97.1001 115.163 97.0625 115.119 97.0222 115.076C97.066 115.039 97.1066 114.998 97.144 114.955C97.3133 114.758 97.4156 114.502 97.4156 114.222C97.4156 113.896 97.2772 113.603 97.0559 113.398C96.9938 113.34 96.9251 113.29 96.8517 113.247C96.9254 113.214 96.9912 113.166 97.0456 113.108C97.1484 112.998 97.2114 112.851 97.2114 112.689C97.2114 112.532 97.1526 112.389 97.0557 112.281C96.9577 112.171 96.8213 112.097 96.6673 112.08L96.3538 112.045L96.5138 111.773C96.5674 111.682 96.598 111.576 96.598 111.463C96.598 111.293 96.5296 111.14 96.4185 111.029C96.3076 110.918 96.1541 110.849 95.9849 110.849Z" fill="white" stroke="#1E196B" stroke-width="1.86952"/>
<path fill-rule="evenodd" clip-rule="evenodd" d="M88.6261 95.2406C88.5172 95.3703 88.3661 95.4436 88.2097 95.4573C88.0534 95.4711 87.8918 95.425 87.7621 95.3163C87.6823 95.2492 87.6237 95.1661 87.5876 95.0755C87.5686 95.0277 87.5557 94.9769 87.5496 94.9244C87.4988 94.9384 87.4468 94.9459 87.3948 94.9467C87.2526 94.9487 87.1092 94.9017 86.9918 94.8033C86.8986 94.725 86.8345 94.6251 86.8009 94.5171C86.7661 94.4056 86.7635 94.2853 86.7947 94.1716L86.8903 93.8237L86.5426 93.9205C86.1976 94.0168 85.8123 93.9468 85.5168 93.699C85.404 93.6044 85.3144 93.4922 85.249 93.3699C85.2221 93.3199 85.1989 93.2674 85.1797 93.2127C85.1259 93.235 85.0708 93.254 85.0146 93.2696C84.572 93.3914 84.0809 93.2945 83.6352 92.9206C83.5771 92.8718 83.5233 92.8213 83.4741 92.7695C83.4369 92.8305 83.3947 92.8895 83.3472 92.9457C83.0934 93.2486 82.7407 93.4196 82.3759 93.4515C82.0112 93.4834 81.6342 93.3761 81.3316 93.1222C81.0289 92.8683 80.8577 92.5156 80.8258 92.1509C80.7939 91.7861 80.9012 91.4092 81.1551 91.1065C81.4114 90.8013 81.768 90.6301 82.145 90.6084C82.5194 90.5872 82.9123 90.7131 83.2493 90.9957C83.307 91.0442 83.3606 91.0952 83.4098 91.1481C83.4472 91.0866 83.4896 91.0274 83.5373 90.9705C83.7911 90.6679 84.1438 90.4969 84.5086 90.465C84.8733 90.433 85.2503 90.5402 85.5529 90.7943C85.7974 90.9994 85.9559 91.2686 86.0246 91.5568C86.0382 91.6134 86.0482 91.6709 86.0548 91.7289C86.1114 91.7194 86.1687 91.7144 86.226 91.7138C86.4858 91.7105 86.7477 91.7966 86.9622 91.9766C87.2117 92.1861 87.3473 92.4806 87.3622 92.7822C87.3663 92.8666 87.3611 92.9516 87.3462 93.0352C87.4192 93.0002 87.498 92.9805 87.5776 92.9761C87.7276 92.9678 87.8811 93.0144 88.0051 93.1187C88.1253 93.2195 88.197 93.3566 88.2178 93.5003C88.2388 93.6457 88.208 93.7981 88.1223 93.9269L87.9473 94.1895L88.2585 94.2418C88.3628 94.2593 88.4636 94.3039 88.5504 94.3767C88.6801 94.4856 88.7536 94.6367 88.7671 94.793C88.7809 94.9494 88.735 95.111 88.6261 95.2406Z" fill="white" stroke="#1E196B" stroke-width="1.86952"/>
<path fill-rule="evenodd" clip-rule="evenodd" d="M85.768 97.0425C85.6296 97.2074 85.4376 97.3006 85.2388 97.3181C85.04 97.3356 84.8345 97.2769 84.6696 97.1385C84.6112 97.0895 84.5618 97.0338 84.5218 96.9737C84.4993 96.9398 84.4794 96.9037 84.4623 96.8659C84.4219 96.8746 84.381 96.8801 84.3399 96.8825C84.1488 96.8932 83.9533 96.8341 83.795 96.7012C83.667 96.5941 83.5824 96.4543 83.5426 96.3043C83.5019 96.1502 83.5085 95.9851 83.5651 95.8329L83.7127 95.4364L83.3104 95.5672C82.8846 95.7056 82.4134 95.6404 82.0614 95.3452C81.9577 95.2582 81.8718 95.1574 81.8038 95.0474C81.7751 95.0008 81.7493 94.9519 81.7266 94.9011C81.675 94.923 81.6218 94.9427 81.5676 94.96C81.0356 95.1301 80.4585 95.0551 80.0308 94.6962C79.9904 94.6621 79.9521 94.6265 79.9167 94.5891L79.7638 94.4279L79.616 94.5937C79.2793 94.9707 78.8389 95.1961 78.3948 95.2519C77.9636 95.3063 77.5282 95.2001 77.1882 94.9149C76.84 94.6228 76.6596 94.1999 76.6454 93.754C76.631 93.2966 76.7906 92.8151 77.125 92.4166C77.4591 92.0185 77.9056 91.7775 78.3587 91.7123C78.7999 91.6489 79.2478 91.7532 79.5961 92.0453C79.6368 92.0795 79.6751 92.1153 79.7109 92.1529L79.8638 92.3128L80.0111 92.1477C80.3479 91.7707 80.7881 91.5455 81.2322 91.4895C81.6636 91.4353 82.0988 91.5413 82.4388 91.8267C82.7086 92.0532 82.8779 92.3585 82.9465 92.6917C82.9581 92.7475 82.9666 92.8035 82.9723 92.8594C83.0279 92.8544 83.0836 92.8529 83.1396 92.8549C83.4153 92.8645 83.685 92.9594 83.9069 93.1457C84.2312 93.4179 84.3808 93.824 84.3532 94.2327C84.3477 94.3151 84.3351 94.3967 84.3154 94.4758C84.3921 94.4555 84.4706 94.4472 84.5485 94.4505C84.7142 94.4575 84.8791 94.5174 85.016 94.6322C85.1461 94.7415 85.2318 94.8843 85.2705 95.0374C85.3103 95.1946 85.3009 95.3627 85.2397 95.5165C85.2021 95.6109 85.1465 95.696 85.0777 95.7679C85.1804 95.7553 85.2812 95.7633 85.3761 95.7891C85.4815 95.8178 85.5826 95.8694 85.672 95.9442C85.8369 96.0826 85.93 96.2748 85.9475 96.4736C85.9648 96.6723 85.9064 96.8777 85.768 97.0425Z" fill="white" stroke="#1E196B" stroke-width="1.86952"/>
<path fill-rule="evenodd" clip-rule="evenodd" d="M30.8218 92.2336C30.6525 92.2336 30.4992 92.3023 30.3882 92.4132C30.2773 92.5243 30.2086 92.6775 30.2086 92.8468C30.2086 92.9511 30.2347 93.0493 30.2808 93.135C30.3053 93.1805 30.3357 93.2229 30.372 93.2616C30.3287 93.2913 30.2895 93.3263 30.2554 93.3657C30.1625 93.4733 30.1063 93.6134 30.1063 93.7665C30.1063 93.8883 30.1417 94.0016 30.203 94.0969C30.2659 94.1953 30.3565 94.2745 30.4636 94.3237L30.7916 94.4741L30.494 94.6781C30.1984 94.8806 30.0042 95.2206 30.0042 95.6061C30.0042 95.7535 30.0324 95.8943 30.084 96.0231C30.1052 96.0758 30.1304 96.1274 30.1599 96.1771C30.1083 96.204 30.0584 96.2342 30.0103 96.2672C29.6325 96.528 29.391 96.9662 29.391 97.5481C29.391 97.624 29.3952 97.6977 29.4031 97.7688C29.3327 97.758 29.2603 97.7524 29.1866 97.7524C28.7915 97.7524 28.4337 97.9126 28.1748 98.1715C27.9159 98.4304 27.7559 98.7882 27.7559 99.1833C27.7559 99.5784 27.9159 99.936 28.1748 100.195C28.4337 100.454 28.7915 100.614 29.1866 100.614C29.585 100.614 29.9456 100.451 30.2043 100.176C30.4612 99.9027 30.6173 99.5207 30.6173 99.081C30.6173 99.0055 30.6127 98.9318 30.604 98.8601C30.6751 98.8711 30.7477 98.8767 30.8218 98.8767C31.2169 98.8767 31.5747 98.7165 31.8336 98.4576C32.0925 98.1987 32.2525 97.8409 32.2525 97.4458C32.2525 97.1267 32.1482 96.832 31.9718 96.5943C31.937 96.5477 31.8994 96.5029 31.8591 96.4607C31.9029 96.4231 31.9435 96.3826 31.9809 96.3391C32.1502 96.1423 32.2525 95.8863 32.2525 95.6061C32.2525 95.2805 32.1141 94.9871 31.8928 94.782C31.8307 94.7245 31.7623 94.674 31.6886 94.6315C31.7623 94.5981 31.8281 94.5504 31.8825 94.4925C31.9853 94.3827 32.0483 94.2353 32.0483 94.0733C32.0483 93.9163 31.9895 93.7733 31.8926 93.6648C31.7946 93.5555 31.6582 93.4811 31.5045 93.4641L31.1907 93.4293L31.3507 93.1573C31.4043 93.0661 31.4349 92.9601 31.4349 92.8468C31.4349 92.6775 31.3665 92.5243 31.2554 92.4132C31.1445 92.3023 30.9913 92.2336 30.8218 92.2336Z" fill="white" stroke="#1E196B" stroke-width="1.86952"/>
<path fill-rule="evenodd" clip-rule="evenodd" d="M30.8218 97.7524C30.4251 97.7524 30.0663 97.914 29.8074 98.1795C29.5496 98.4443 29.3915 98.8119 29.3917 99.2256C29.3919 99.3561 29.4077 99.4821 29.4376 99.6017C29.3338 99.5254 29.2231 99.4626 29.1077 99.4139C28.9122 99.3312 28.697 99.2855 28.4711 99.2855C28.0196 99.2855 27.6109 99.4685 27.315 99.7644C27.019 100.06 26.8359 100.469 26.8359 100.921C26.8359 101.372 27.019 101.781 27.315 102.077C27.6109 102.373 28.0196 102.556 28.4711 102.556C29.0309 102.556 29.5251 102.275 29.8199 101.846C29.8573 101.791 29.8914 101.735 29.9218 101.676C29.9742 101.716 30.0289 101.751 30.086 101.782C30.2743 101.885 30.4901 101.943 30.7197 101.943C31.0866 101.943 31.4188 101.794 31.6591 101.554C31.8996 101.313 32.0483 100.981 32.0483 100.614C32.0483 100.461 32.0225 100.315 32.0002 99.9951C32.1594 99.7644 32.2527 99.4847 32.2527 99.1832C32.2527 98.7883 32.0925 98.4305 31.8336 98.1716C31.5747 97.9125 31.2169 97.7524 30.8218 97.7524Z" fill="white" stroke="#1E196B" stroke-width="1.86952"/>
<path fill-rule="evenodd" clip-rule="evenodd" d="M27.1425 101.023C26.6682 101.023 26.2357 101.202 25.9084 101.497C25.5769 101.795 25.3527 102.212 25.3016 102.68C25.2946 102.745 25.2911 102.809 25.2906 102.872C25.2274 102.866 25.1634 102.863 25.0984 102.863C24.5905 102.863 24.1306 103.069 23.7976 103.401C23.4648 103.734 23.2588 104.194 23.2588 104.702C23.2588 105.21 23.4648 105.67 23.7976 106.003C24.1306 106.336 24.5905 106.542 25.0984 106.542C25.4767 106.542 25.8286 106.428 26.1209 106.232C26.4222 106.03 26.6606 105.741 26.8003 105.402C26.8318 105.325 26.8578 105.247 26.8784 105.168C26.9451 105.217 27.0146 105.261 27.0866 105.3C27.3463 105.44 27.6439 105.52 27.9601 105.52C28.371 105.52 28.7506 105.385 29.0567 105.157C29.3705 104.924 29.6076 104.593 29.7224 104.209C29.7412 104.147 29.7563 104.084 29.7681 104.02C29.8299 104.04 29.892 104.055 29.9544 104.067C30.0368 104.081 30.1216 104.089 30.2085 104.089C30.6036 104.089 30.9613 103.929 31.2202 103.67C31.4791 103.411 31.6392 103.053 31.6392 102.658C31.6392 102.263 31.4791 101.905 31.2202 101.646C30.9613 101.387 30.6036 101.227 30.2085 101.227C29.7147 101.227 29.2796 101.478 29.0224 101.858C28.9527 101.961 28.8965 102.073 28.8558 102.19C28.8094 102.073 28.7513 101.961 28.6822 101.855C28.3535 101.354 27.7867 101.023 27.1425 101.023Z" fill="white" stroke="#1E196B" stroke-width="1.86952"/>
<path fill-rule="evenodd" clip-rule="evenodd" d="M15.2878 92.8469C14.7799 92.8469 14.32 93.0529 13.9871 93.3859C13.6541 93.7187 13.4482 94.1786 13.4482 94.6866C13.4482 95.1252 13.6016 95.5278 13.8578 95.844C14.1188 96.1658 14.4862 96.3981 14.9067 96.4864C15.0013 96.5063 15.0963 96.5183 15.1909 96.5231C15.1371 96.6032 15.0901 96.6867 15.05 96.7726C14.9402 97.0084 14.879 97.2712 14.879 97.5483C14.879 98.077 15.1022 98.5537 15.4594 98.8891C15.5982 99.0197 15.7571 99.1283 15.9305 99.2108C15.7513 99.1688 15.5615 99.1747 15.3823 99.2326C15.1742 99.2998 14.9954 99.4321 14.8695 99.605C14.7469 99.7736 14.6747 99.9811 14.6747 100.205C14.6747 100.488 14.789 100.743 14.974 100.928C15.1589 101.113 15.4144 101.228 15.6967 101.228C15.9211 101.228 16.1286 101.155 16.2972 101.032C16.4702 100.907 16.6022 100.728 16.6693 100.52C16.7252 100.347 16.7326 100.163 16.6947 99.9892C16.7808 100.156 16.8867 100.308 17.0128 100.443C17.2731 100.72 17.6176 100.916 18.0037 101.032C18.0543 101.047 18.1051 101.06 18.1559 101.073C18.1517 101.123 18.1495 101.175 18.1495 101.228C18.1495 101.634 18.2816 102.011 18.5055 102.315C18.7352 102.628 19.0611 102.865 19.4398 102.983C19.4865 102.998 19.5335 103.011 19.5809 103.021C19.5797 103.07 19.5803 103.119 19.583 103.168C19.6091 103.654 19.8239 104.089 20.1553 104.403C20.485 104.715 20.9301 104.907 21.4199 104.907C21.4705 104.907 21.5206 104.905 21.5701 104.9L21.7163 104.888L21.7746 105.023C21.918 105.355 22.1563 105.636 22.4553 105.832C22.7448 106.022 23.0914 106.133 23.464 106.133C23.9719 106.133 24.4318 105.927 24.7646 105.594C25.0976 105.261 25.3036 104.801 25.3036 104.293C25.3036 103.786 25.0976 103.326 24.7646 102.993C24.4318 102.66 23.9719 102.454 23.464 102.454C23.413 102.454 23.3627 102.456 23.3133 102.46L23.1672 102.472L23.1091 102.337C22.8981 101.849 22.4817 101.471 21.9692 101.311C21.9226 101.296 21.8753 101.284 21.8281 101.273C21.8293 101.225 21.8286 101.176 21.826 101.127C21.8035 100.708 21.6411 100.328 21.3853 100.025C21.122 99.7128 20.76 99.4839 20.3486 99.3818C20.2947 99.3684 20.2405 99.3575 20.1862 99.3485C20.191 99.2943 20.1935 99.2392 20.1935 99.1834C20.1935 98.5753 19.8984 98.0363 19.444 97.7015C19.4088 97.6757 19.3728 97.6512 19.336 97.6278C19.3477 97.587 19.3568 97.5461 19.3633 97.5052C19.3716 97.4525 19.3759 97.3987 19.3759 97.3438C19.3759 97.0064 19.2123 96.707 18.9604 96.5212C18.9074 96.482 18.8508 96.4481 18.7913 96.4199C18.8331 96.3655 18.8717 96.3091 18.9069 96.2509C19.0749 95.9734 19.1715 95.6478 19.1715 95.2999C19.1715 94.7917 18.9656 94.3319 18.6327 93.9991C18.2998 93.666 17.8399 93.4603 17.3319 93.4603C17.1696 93.4603 17.0122 93.4813 16.8624 93.5206C16.8214 93.5313 16.7807 93.5436 16.7402 93.5574C16.714 93.5237 16.6867 93.4911 16.6582 93.4594C16.3214 93.0835 15.8322 92.8469 15.2878 92.8469Z" fill="white" stroke="#1E196B" stroke-width="1.86952"/>
<path fill-rule="evenodd" clip-rule="evenodd" d="M14.6746 89.9846C14.1666 89.9846 13.7067 90.1904 13.3738 90.5234C13.0409 90.8562 12.835 91.3161 12.835 91.824C12.835 92.1643 12.9272 92.4829 13.0882 92.7562C13.255 93.0394 13.4953 93.274 13.885 93.5771C13.9617 94.0118 14.1912 94.3938 14.5159 94.6658C14.8354 94.9335 15.2472 95.0946 15.6966 95.0946C16.1073 95.0946 16.4866 94.9599 16.7927 94.7325C17.1064 94.4994 17.3434 94.1686 17.4585 93.7853C17.4769 93.7238 17.492 93.6619 17.5037 93.5996C17.5651 93.6178 17.6266 93.632 17.6882 93.6425C17.7715 93.6565 17.8573 93.6637 17.945 93.6637C18.3417 93.6637 18.7013 93.5139 18.9615 93.2701C19.2167 93.0309 19.3758 92.7007 19.3758 92.3351C19.3758 91.9697 19.2167 91.6395 18.9615 91.4003C18.7013 91.1565 18.3417 91.0064 17.945 91.0064C17.4923 91.0064 17.0876 91.2017 16.8248 91.5094L16.5591 91.8201L16.4699 91.421C16.3772 91.006 16.144 90.6439 15.823 90.387C15.5083 90.1351 15.109 89.9846 14.6746 89.9846Z" fill="white" stroke="#1E196B" stroke-width="1.86952"/>
<path fill-rule="evenodd" clip-rule="evenodd" d="M16.105 87.1233C15.682 87.1233 15.301 87.2936 15.0379 87.5668C15.008 87.598 14.9794 87.6306 14.9523 87.6645C14.9113 87.6481 14.8699 87.633 14.8282 87.6197C14.6508 87.5628 14.4617 87.532 14.2654 87.532C13.7574 87.532 13.2975 87.738 12.9646 88.0708C12.6317 88.4038 12.4258 88.8637 12.4258 89.3716C12.4258 89.8796 12.6317 90.3394 12.9646 90.6725C13.2975 91.0053 13.7574 91.2113 14.2654 91.2113C14.6363 91.2113 14.9816 91.1015 15.2704 90.9128C15.5685 90.7177 15.8066 90.4387 15.9509 90.1092L16.2036 89.5321L16.3379 90.1477C16.4044 90.4531 16.5837 90.7195 16.8318 90.9091C17.0795 91.0984 17.3959 91.2113 17.7402 91.2113C18.1369 91.2113 18.4965 91.0615 18.7567 90.8174C19.0119 90.5782 19.171 90.248 19.171 89.8826C19.171 89.517 19.0118 89.1869 18.756 88.9476C18.4954 88.7038 18.1349 88.554 17.7366 88.554C17.6666 88.554 17.5977 88.5588 17.5303 88.5678C17.5366 88.5009 17.5376 88.4327 17.5327 88.364C17.5084 88.0176 17.341 87.7084 17.0871 87.4858C16.83 87.2604 16.4845 87.1233 16.105 87.1233Z" fill="white" stroke="#1E196B" stroke-width="1.86952"/>
<path d="M12.4256 90.3941C13.4415 90.3941 14.2652 89.5706 14.2652 88.5545C14.2652 87.5386 13.4415 86.7148 12.4256 86.7148C11.4096 86.7148 10.5859 87.5386 10.5859 88.5545C10.5859 89.5706 11.4096 90.3941 12.4256 90.3941Z" fill="white" stroke="#1E196B" stroke-width="1.86952"/>
<path d="M18.7622 101.841C19.3267 101.841 19.7842 101.383 19.7842 100.819C19.7842 100.254 19.3267 99.7966 18.7622 99.7966C18.1978 99.7966 17.7402 100.254 17.7402 100.819C17.7402 101.383 18.1978 101.841 18.7622 101.841Z" fill="white" stroke="#1E196B" stroke-width="1.86952"/>
<path d="M13.0396 99.3874C13.604 99.3874 14.0616 98.9297 14.0616 98.3653C14.0616 97.8007 13.604 97.3433 13.0396 97.3433C12.4751 97.3433 12.0176 97.8007 12.0176 98.3653C12.0176 98.9297 12.4751 99.3874 13.0396 99.3874Z" fill="white" stroke="#1E196B" stroke-width="1.86952"/>
<path d="M9.97318 93.8686C10.5376 93.8686 10.9952 93.4111 10.9952 92.8468C10.9952 92.2822 10.5376 91.8247 9.97318 91.8247C9.40873 91.8247 8.95117 92.2822 8.95117 92.8468C8.95117 93.4111 9.40873 93.8686 9.97318 93.8686Z" fill="white" stroke="#1E196B" stroke-width="1.86952"/>
<path d="M11.608 95.9125C12.1724 95.9125 12.63 95.4548 12.63 94.8905C12.63 94.3261 12.1724 93.8684 11.608 93.8684C11.0435 93.8684 10.5859 94.3261 10.5859 94.8905C10.5859 95.4548 11.0435 95.9125 11.608 95.9125Z" fill="white" stroke="#1E196B" stroke-width="1.86952"/>
<path fill-rule="evenodd" clip-rule="evenodd" d="M23.9747 77.1082C23.3255 77.1082 22.7379 77.3712 22.3124 77.7965C21.8871 78.222 21.624 78.8096 21.624 79.4588C21.624 80.0693 21.8568 80.6256 22.2385 81.0435C22.6236 81.4651 23.16 81.7459 23.7619 81.7999C23.7991 81.8031 23.8363 81.8056 23.8733 81.8071C23.8892 81.8405 23.906 81.8738 23.9238 81.9064C24.1081 82.2484 24.3825 82.5348 24.7153 82.7336C25.0368 82.9256 25.4127 83.0358 25.8144 83.0358C25.8782 83.0358 25.9414 83.0329 26.0037 83.0272L26.3442 82.9966L26.2101 83.3111C26.1526 83.4462 26.1209 83.5949 26.1209 83.7512C26.1209 84.0615 26.2467 84.3427 26.45 84.5461C26.6536 84.7495 26.9346 84.8754 27.2451 84.8754C27.5556 84.8754 27.8366 84.7495 28.0399 84.5461C28.2435 84.3427 28.3693 84.0615 28.3693 83.7512C28.3693 83.4899 28.28 83.2494 28.1305 83.0585C27.9776 82.8635 27.762 82.7202 27.5138 82.6597C27.3586 82.6218 27.2 82.6183 27.0476 82.6461C27.1808 82.5525 27.3024 82.4445 27.4104 82.3245C27.7524 81.9442 27.9606 81.4413 27.9606 80.8896C27.9606 80.3921 27.7913 79.9342 27.5073 79.5703C27.2171 79.1986 26.8073 78.9248 26.3354 78.8074C26.2994 78.7982 26.2631 78.7904 26.2268 78.7834C26.216 78.7477 26.2047 78.7121 26.1922 78.6769C26.0289 78.2137 25.7245 77.8171 25.3307 77.5385C24.9476 77.2673 24.4796 77.1082 23.9747 77.1082Z" fill="white" stroke="#1E196B" stroke-width="1.86952"/>
<path fill-rule="evenodd" clip-rule="evenodd" d="M28.8802 81.8093C28.5697 81.8093 28.2887 81.9351 28.0853 82.1387C27.8817 82.342 27.756 82.6232 27.756 82.9335C27.756 83.244 27.8817 83.525 28.0853 83.7286C28.2887 83.9319 28.5697 84.0577 28.8802 84.0577C29.1907 84.0577 29.4717 83.9319 29.675 83.7286C29.8786 83.525 30.0043 83.244 30.0043 82.9335C30.0043 82.6232 29.8786 82.342 29.675 82.1387C29.4717 81.9351 29.1907 81.8093 28.8802 81.8093ZM26.0185 76.4949C25.453 76.4949 24.9407 76.7131 24.5698 77.0669C24.2025 77.4174 23.9746 77.9016 23.9746 78.4366C23.9746 78.9719 24.2025 79.4558 24.5698 79.8066C24.9407 80.1604 25.453 80.3786 26.0185 80.3786C26.5842 80.3786 27.0965 80.1604 27.4674 79.8066C27.8345 79.4558 28.0626 78.9719 28.0626 78.4366C28.0626 77.9016 27.8345 77.4174 27.4674 77.0669C27.0965 76.7131 26.5842 76.4949 26.0185 76.4949Z" fill="white" stroke="#1E196B" stroke-width="1.86952"/>
<path fill-rule="evenodd" clip-rule="evenodd" d="M28.0626 79.3562C27.7088 79.3562 27.3827 79.476 27.1234 79.6776C26.8582 79.8834 26.6622 80.1744 26.577 80.5094C26.5676 80.5457 26.5599 80.582 26.4493 80.6509C26.231 80.731 26.0445 80.8768 25.9137 81.0642C25.7865 81.2464 25.7119 81.4679 25.7119 81.7069C25.7119 82.0174 25.8379 82.2984 26.0412 82.5017C26.2446 82.7053 26.5258 82.831 26.8361 82.831C27.1625 82.831 27.4562 82.692 27.7315 82.3865C27.768 82.3946 27.8043 82.4011 27.8409 82.4064C27.9132 82.4169 27.9874 82.4223 28.0626 82.4223C28.4859 82.4223 28.8692 82.2507 29.1465 81.9732C29.424 81.6959 29.5957 81.3126 29.5957 80.8893C29.5957 80.4659 29.424 80.0826 29.1465 79.8053C28.8692 79.5279 28.4859 79.3562 28.0626 79.3562Z" fill="white" stroke="#1E196B" stroke-width="1.86952"/>
<path d="M21.2153 82.8305C22.1183 82.8305 22.8504 82.1442 22.8504 81.2975C22.8504 80.4508 22.1183 79.7644 21.2153 79.7644C20.3122 79.7644 19.5801 80.4508 19.5801 81.2975C19.5801 82.1442 20.3122 82.8305 21.2153 82.8305Z" fill="white" stroke="#1E196B" stroke-width="1.86952"/>
<path fill-rule="evenodd" clip-rule="evenodd" d="M18.5577 76.4949C18.161 76.4949 17.8014 76.6447 17.5412 76.8887C17.286 77.1279 17.1269 77.4581 17.1269 77.8235C17.1269 78.104 17.2205 78.3638 17.3794 78.5775C17.4369 78.6546 17.5026 78.7255 17.5758 78.7883C17.4825 78.8108 17.3907 78.8429 17.302 78.8845C17.0638 78.996 16.863 79.1676 16.7236 79.3789C16.5907 79.5803 16.5137 79.8177 16.5137 80.072C16.5137 80.4374 16.6728 80.7676 16.928 81.0068C17.1882 81.2507 17.5478 81.4004 17.9445 81.4004C18.4681 81.4004 18.928 81.1394 19.178 80.7453C19.2354 80.6548 19.2817 80.5573 19.3163 80.4549C19.3686 80.5503 19.4311 80.6386 19.5026 80.718C19.7661 81.0112 20.1611 81.1962 20.6017 81.1962C20.9984 81.1962 21.358 81.0462 21.6182 80.8024C21.8734 80.5632 22.0324 80.233 22.0324 79.8676C22.0324 79.502 21.8734 79.172 21.6182 78.9326C21.358 78.6888 20.9984 78.539 20.6017 78.539C20.4358 78.539 20.2765 78.565 20.1285 78.6138L19.6879 78.7583L19.8784 78.3356C19.9493 78.1782 19.9885 78.0052 19.9885 77.8235C19.9885 77.4581 19.8294 77.1279 19.5742 76.8887C19.314 76.6447 18.9544 76.4949 18.5577 76.4949Z" fill="white" stroke="#1E196B" stroke-width="1.86952"/>
<path fill-rule="evenodd" clip-rule="evenodd" d="M17.5363 73.2241C17.1396 73.2241 16.7799 73.3739 16.5198 73.6179C16.2646 73.8572 16.1055 74.1873 16.1055 74.5527C16.1055 74.8886 16.2398 75.1945 16.4596 75.4276C16.686 75.6677 17.0028 75.8306 17.3595 75.8713L17.5554 75.8938L17.5363 76.1879C17.5363 76.5535 17.6954 76.8835 17.9506 77.1229C18.2107 77.3668 18.5704 77.5165 18.9671 77.5165C19.1639 77.5165 19.3516 77.4798 19.5223 77.4127L19.853 77.2828L19.7991 77.634C19.7896 77.6956 19.7847 77.7588 19.7847 77.8231C19.7847 78.1887 19.9438 78.5189 20.199 78.7581C20.4592 79.0019 20.8188 79.1517 21.2155 79.1517C21.6122 79.1517 21.9718 79.0019 22.232 78.7581C22.4872 78.5189 22.6464 78.1887 22.6464 77.8231C22.6464 77.4577 22.4872 77.1275 22.232 76.8883C21.9718 76.6445 21.6122 76.4945 21.2155 76.4945C21.0187 76.4945 20.831 76.5315 20.6604 76.5986L20.3295 76.7291L20.3835 76.3775C20.393 76.3156 20.3979 76.2522 20.3979 76.1879C20.3979 75.8523 20.2636 75.5461 20.0438 75.313C19.8174 75.0732 19.5006 74.9103 19.1439 74.8696L18.9479 74.8473L18.9671 74.5527C18.9671 74.1873 18.8079 73.8572 18.5527 73.6179C18.2926 73.3739 17.933 73.2241 17.5363 73.2241Z" fill="white" stroke="#1E196B" stroke-width="1.86952"/>
<path d="M20.1935 85.0791C20.9837 85.0791 21.6243 84.4841 21.6243 83.7505C21.6243 83.0167 20.9837 82.4219 20.1935 82.4219C19.4033 82.4219 18.7627 83.0167 18.7627 83.7505C18.7627 84.4841 19.4033 85.0791 20.1935 85.0791Z" fill="white" stroke="#1E196B" stroke-width="1.86952"/>
<path fill-rule="evenodd" clip-rule="evenodd" d="M16.7179 83.8654L16.3649 83.4904C16.1017 83.2107 15.7161 83.0356 15.2872 83.0356C14.8906 83.0356 14.5309 83.1854 14.2708 83.4292C14.0156 83.6686 13.8564 83.9988 13.8564 84.3642C13.8564 84.7296 14.0156 85.0598 14.2708 85.299C14.5309 85.543 14.8906 85.6928 15.2872 85.6928C15.6843 85.6928 16.0442 85.5426 16.3043 85.2975C16.5593 85.0572 16.718 84.725 16.718 84.3561L16.7179 83.8654ZM16.7182 83.8409L17.0712 84.2159C17.3345 84.4956 17.7201 84.6708 18.1489 84.6708C18.6551 84.6708 19.1015 84.4267 19.4595 83.9765C19.7377 83.8818 19.9761 83.7086 20.1432 83.4849C20.303 83.2709 20.3973 83.0102 20.3973 82.729C20.3973 82.3634 20.2382 82.0334 19.9829 81.794C19.7228 81.5502 19.3632 81.4004 18.9665 81.4004C18.4603 81.4004 18.0138 81.6444 17.6559 82.0944C17.3774 82.1896 17.1389 82.3627 16.9719 82.5877C16.8121 82.8029 16.7181 83.0653 16.7182 83.3502L16.7182 83.8409Z" fill="white" stroke="#1E196B" stroke-width="1.86952"/>
<path fill-rule="evenodd" clip-rule="evenodd" d="M17.7409 83.0352C17.3442 83.0352 16.9846 83.1852 16.7244 83.429C16.4692 83.6682 16.3101 83.9984 16.3101 84.3638C16.3101 84.6021 16.3776 84.8254 16.4956 85.018C16.5555 85.1158 16.6283 85.2056 16.7133 85.2846C16.599 85.2841 16.483 85.297 16.3679 85.3239C16.0533 85.3976 15.7795 85.5682 15.586 85.8008C15.3997 86.0248 15.2881 86.3062 15.2881 86.6123C15.2881 86.9777 15.4472 87.3079 15.7024 87.5471C15.9625 87.7909 16.3222 87.9409 16.7189 87.9409C17.0567 87.9409 17.3676 87.8323 17.6131 87.6492C17.8597 87.4658 18.0404 87.2073 18.1135 86.9099C18.1489 86.766 18.1578 86.6187 18.1425 86.4735C18.2259 86.5983 18.3267 86.7081 18.4401 86.7995C18.6917 87.0018 19.0188 87.1233 19.3761 87.1233C19.7728 87.1233 20.1324 86.9733 20.3926 86.7295C20.6478 86.4903 20.8069 86.1601 20.8069 85.7947C20.8069 85.4291 20.6476 85.0987 20.3919 84.8595C20.1313 84.6157 19.7708 84.4661 19.3725 84.4661C19.3025 84.4661 19.2336 84.4707 19.1662 84.4797C19.1725 84.4128 19.1734 84.3447 19.1686 84.2761C19.1443 83.9297 18.9769 83.6205 18.7229 83.3977C18.4659 83.1723 18.1204 83.0352 17.7409 83.0352Z" fill="white" stroke="#1E196B" stroke-width="1.86952"/>
<path fill-rule="evenodd" clip-rule="evenodd" d="M72.8493 97.2922C72.4526 97.2922 72.0929 97.442 71.8327 97.6858C71.5775 97.9251 71.4185 98.2552 71.4185 98.6209C71.4185 98.859 71.4859 99.0825 71.604 99.2751C71.6639 99.3729 71.7367 99.4625 71.8215 99.5414C71.7074 99.541 71.5913 99.5539 71.4763 99.5808C71.1616 99.6545 70.8878 99.8251 70.6943 100.058C70.508 100.282 70.3965 100.563 70.3965 100.869C70.3965 101.235 70.5555 101.565 70.8109 101.804C71.0708 102.048 71.4306 102.198 71.8272 102.198C72.1651 102.198 72.476 102.089 72.7216 101.906C72.968 101.723 73.1486 101.464 73.2219 101.167C73.2573 101.023 73.2663 100.876 73.251 100.73C73.3343 100.855 73.4351 100.965 73.5486 101.056C73.8 101.259 74.1272 101.38 74.4845 101.38C74.8811 101.38 75.2408 101.23 75.5008 100.986C75.7562 100.747 75.9152 100.417 75.9152 100.052C75.9152 99.686 75.756 99.3558 75.5002 99.1166C75.2395 98.8728 74.8792 98.723 74.481 98.723C74.4108 98.723 74.3419 98.7278 74.2745 98.7368C74.2809 98.6696 74.2818 98.6016 74.2769 98.533C74.2527 98.1866 74.0852 97.8774 73.8313 97.6546C73.5744 97.4293 73.2287 97.2922 72.8493 97.2922Z" fill="white" stroke="#1E196B" stroke-width="1.86952"/>
<path fill-rule="evenodd" clip-rule="evenodd" d="M68.6475 103.648C68.6475 104.134 68.8561 104.573 69.1919 104.891C69.532 105.213 70.0019 105.412 70.5203 105.412C70.8586 105.412 71.1759 105.327 71.4499 105.179C71.54 105.131 71.6268 105.074 71.7094 105.011C71.7125 105.112 71.7248 105.215 71.7468 105.316C71.8347 105.721 72.07 106.074 72.3961 106.325C72.7195 106.575 73.1323 106.724 73.5817 106.724C74.1001 106.724 74.5701 106.525 74.9101 106.203C75.2457 105.885 75.4546 105.446 75.4546 104.96C75.4546 104.567 75.3179 104.204 75.0874 103.911C74.8488 103.608 74.5106 103.38 74.1187 103.27C73.9654 103.227 73.8097 103.204 73.6554 103.199C73.7923 103.125 73.9195 103.033 74.0337 102.925C74.3704 102.607 74.5799 102.167 74.5799 101.68C74.5799 101.194 74.3711 100.755 74.0354 100.437C73.6954 100.115 73.2255 99.9165 72.707 99.9165C72.1883 99.9165 71.7184 100.115 71.3784 100.437C71.0427 100.756 70.8341 101.196 70.8341 101.683V101.897L70.5203 101.885C70.0019 101.885 69.532 102.083 69.1919 102.405C68.8561 102.723 68.6475 103.162 68.6475 103.648Z" fill="white" stroke="#1E196B" stroke-width="1.86952"/>
<path d="M18.3537 89.3721C19.1439 89.3721 19.7845 88.7773 19.7845 88.0435C19.7845 87.3098 19.1439 86.7148 18.3537 86.7148C17.5634 86.7148 16.9229 87.3098 16.9229 88.0435C16.9229 88.7773 17.5634 89.3721 18.3537 89.3721Z" fill="white" stroke="#1E196B" stroke-width="1.86952"/>
<path d="M16.1056 83.24C16.8958 83.24 17.5364 82.6453 17.5364 81.9114C17.5364 81.1778 16.8958 80.583 16.1056 80.583C15.3154 80.583 14.6748 81.1778 14.6748 81.9114C14.6748 82.6453 15.3154 83.24 16.1056 83.24Z" fill="white" stroke="#1E196B" stroke-width="1.86952"/>
<path fill-rule="evenodd" clip-rule="evenodd" d="M16.7183 74.0415C16.3216 74.0415 15.962 74.1915 15.7018 74.4353C15.4466 74.6745 15.2875 75.0047 15.2875 75.3701C15.2875 75.737 15.4479 76.0685 15.7048 76.308C15.7973 76.3944 15.9008 76.4674 16.0125 76.5242C15.8899 76.547 15.7691 76.5866 15.6538 76.6419C15.3807 76.7729 15.1579 76.9837 15.0223 77.2423C14.9972 77.2902 14.9751 77.3399 14.956 77.3906C14.9036 77.3731 14.8508 77.3587 14.7978 77.3471C14.6925 77.3241 14.5827 77.3121 14.4699 77.3121C14.0732 77.3121 13.7135 77.4619 13.4534 77.7057C13.1982 77.9449 13.0391 78.2751 13.0391 78.6407C13.0391 79.0061 13.1982 79.3363 13.4534 79.5755C13.7135 79.8193 14.0732 79.9693 14.4699 79.9693C14.7489 79.9693 15.0095 79.8952 15.2301 79.7662C15.4555 79.6348 15.6392 79.4461 15.757 79.2213C15.7822 79.1734 15.8043 79.124 15.8233 79.073C15.8758 79.0905 15.9286 79.1052 15.9815 79.1165C16.0869 79.1395 16.1967 79.1517 16.3095 79.1517C16.7062 79.1517 17.0658 79.0017 17.326 78.7579C17.5812 78.5187 17.7403 78.1885 17.7403 77.8231C17.7403 77.4562 17.5799 77.1247 17.3227 76.8855C17.2298 76.7991 17.1258 76.7261 17.0136 76.6694C17.1366 76.6465 17.2578 76.6071 17.3736 76.5516C17.6083 76.439 17.8058 76.2675 17.9429 76.0576C18.0735 75.8575 18.1491 75.622 18.1491 75.3701C18.1491 75.0047 17.99 74.6745 17.7348 74.4353C17.4746 74.1915 17.115 74.0415 16.7183 74.0415Z" fill="white" stroke="#1E196B" stroke-width="1.86952"/>
<path fill-rule="evenodd" clip-rule="evenodd" d="M15.6961 72.2017C15.3499 72.2017 15.032 72.3158 14.7838 72.5069C14.5352 72.6983 14.3564 72.9668 14.2917 73.2744C14.281 73.3254 14.2735 73.3768 14.2693 73.4282C14.2173 73.4279 14.1647 73.4306 14.1118 73.4356C13.7825 73.4682 13.4861 73.6046 13.2614 73.8102C13.04 74.0127 12.8884 74.2823 12.8462 74.5847C12.8404 74.6262 12.8368 74.6678 12.8353 74.7093C12.7948 74.7205 12.7545 74.7334 12.7147 74.7483C12.4458 74.8475 12.2163 75.0207 12.0559 75.2418C11.9025 75.453 11.8124 75.7082 11.8124 75.9833C11.8124 76.3681 11.989 76.7138 12.2684 76.9553C12.3669 77.0403 12.4763 77.1109 12.5935 77.1643C12.4669 77.1943 12.3423 77.2378 12.2221 77.2946C11.913 77.4409 11.6528 77.665 11.4721 77.9401C11.2992 78.2032 11.1992 78.513 11.1992 78.8448C11.1992 79.3232 11.4072 79.7555 11.7413 80.0686C12.0803 80.3866 12.549 80.5823 13.0661 80.5823C13.5832 80.5823 14.0519 80.3866 14.3909 80.0686C14.725 79.7555 14.933 79.3232 14.933 78.8448C14.933 78.8058 14.9316 78.7673 14.9287 78.7295L14.919 78.6023L15.0289 78.5375C15.4277 78.3033 15.6961 77.8887 15.6961 77.414C15.6961 77.1739 15.6275 76.9491 15.508 76.7552C15.3826 76.5518 15.2012 76.3826 14.9841 76.2654L14.6515 76.0856L14.9841 75.9057C15.3323 75.7174 15.5892 75.3953 15.6698 75.0126C15.6805 74.9617 15.688 74.9103 15.6922 74.8589C15.7442 74.8591 15.7968 74.8567 15.8496 74.8515C16.2118 74.8156 16.5342 74.654 16.7651 74.4133C16.9894 74.1793 17.1269 73.8701 17.1269 73.5303C17.1269 73.1649 16.9677 72.8347 16.7125 72.5955C16.4524 72.3517 16.0927 72.2017 15.6961 72.2017Z" fill="white" stroke="#1E196B" stroke-width="1.86952"/>
<path d="M14.674 87.5322C15.4642 87.5322 16.1048 86.9375 16.1048 86.2036C16.1048 85.47 15.4642 84.875 14.674 84.875C13.8837 84.875 13.2432 85.47 13.2432 86.2036C13.2432 86.9375 13.8837 87.5322 14.674 87.5322Z" fill="white" stroke="#1E196B" stroke-width="1.86952"/>
<path d="M13.4484 86.3057C14.2386 86.3057 14.8792 85.7109 14.8792 84.9771C14.8792 84.2432 14.2386 83.6484 13.4484 83.6484C12.6582 83.6484 12.0176 84.2432 12.0176 84.9771C12.0176 85.7109 12.6582 86.3057 13.4484 86.3057Z" fill="white" stroke="#1E196B" stroke-width="1.86952"/>
<path fill-rule="evenodd" clip-rule="evenodd" d="M14.9059 78.947C14.4932 78.947 14.1122 79.073 13.6222 79.3566C13.1806 79.369 12.7772 79.5241 12.4633 79.7751C12.1491 80.0266 11.9247 80.3745 11.757 80.9008C11.2813 81.2146 10.9678 81.7322 10.9678 82.3197C10.9678 82.798 11.1757 83.2303 11.5098 83.5436C11.8489 83.8616 12.3175 84.057 12.8346 84.057C13.2899 84.057 13.7075 83.9053 14.0362 83.6457C14.3673 83.3844 14.608 83.014 14.7066 82.5808C14.7192 82.5255 14.7293 82.4702 14.7368 82.4149C14.7925 82.4195 14.8489 82.4219 14.9059 82.4219C15.423 82.4219 15.8917 82.2261 16.2307 81.9084C16.5648 81.5951 16.7728 81.1628 16.7728 80.6845C16.7728 80.2061 16.5648 79.7738 16.2307 79.4604C15.8917 79.1427 15.423 78.947 14.9059 78.947Z" fill="white" stroke="#1E196B" stroke-width="1.86952"/>
<path d="M17.9445 73.8372C18.7347 73.8372 19.3753 73.2424 19.3753 72.5086C19.3753 71.775 18.7347 71.1802 17.9445 71.1802C17.1543 71.1802 16.5137 71.775 16.5137 72.5086C16.5137 73.2424 17.1543 73.8372 17.9445 73.8372Z" fill="white" stroke="#1E196B" stroke-width="1.86952"/>
<path fill-rule="evenodd" clip-rule="evenodd" d="M93.188 117.191C92.7913 117.191 92.4323 117.352 92.1736 117.618C91.9156 117.883 91.7575 118.25 91.7577 118.664C91.7579 118.794 91.7739 118.92 91.8036 119.04C91.7 118.964 91.5891 118.901 91.4739 118.852C91.2782 118.769 91.063 118.724 90.8373 118.724C90.3858 118.724 89.9769 118.907 89.681 119.203C89.3852 119.499 89.2021 119.907 89.2021 120.359C89.2021 120.811 89.3852 121.219 89.681 121.515C89.9769 121.811 90.3858 121.994 90.8373 121.994C91.3971 121.994 91.8911 121.713 92.1859 121.284C92.2232 121.23 92.2574 121.173 92.288 121.115C92.3402 121.154 92.3951 121.189 92.452 121.221C92.6402 121.323 92.8563 121.381 93.0857 121.381C93.4526 121.381 93.7847 121.232 94.0253 120.992C94.2656 120.751 94.4143 120.419 94.4143 120.052C94.4143 119.9 94.3887 119.753 94.3662 119.434C94.5256 119.203 94.6187 118.923 94.6187 118.622C94.6187 118.227 94.4587 117.869 94.1996 117.61C93.9407 117.351 93.5829 117.191 93.188 117.191Z" fill="white" stroke="#1E196B" stroke-width="1.86952"/>
<path fill-rule="evenodd" clip-rule="evenodd" d="M85.5151 122.725C85.8877 122.861 86.2802 122.831 86.6144 122.67C86.9472 122.51 87.2216 122.218 87.3626 121.83C87.4072 121.707 87.4354 121.583 87.4483 121.461C87.5196 121.568 87.6023 121.664 87.6941 121.75C87.8496 121.894 88.0361 122.011 88.2482 122.088C88.6727 122.243 89.1194 122.21 89.4986 122.034C89.8779 121.857 90.1898 121.535 90.3441 121.111C90.4985 120.687 90.4664 120.24 90.2895 119.861C90.1126 119.481 89.7911 119.169 89.3667 119.015C88.8408 118.823 88.2804 118.919 87.8566 119.221C87.803 119.259 87.7516 119.301 87.7029 119.345C87.6672 119.29 87.6277 119.238 87.5848 119.19C87.4429 119.029 87.2599 118.901 87.0442 118.822C86.6994 118.697 86.3364 118.723 86.0283 118.867C85.7202 119.01 85.4668 119.272 85.3413 119.616C85.2892 119.76 85.2632 119.906 85.1749 120.214C84.9464 120.377 84.7631 120.608 84.6599 120.891C84.5248 121.262 84.553 121.653 84.7076 121.985C84.8624 122.317 85.1438 122.59 85.5151 122.725Z" fill="white" stroke="#1E196B" stroke-width="1.86952"/>
<path d="M87.7948 124.217C88.7084 124.217 89.4491 123.476 89.4491 122.562C89.4491 121.649 88.7084 120.908 87.7948 120.908C86.8812 120.908 86.1406 121.649 86.1406 122.562C86.1406 123.476 86.8812 124.217 87.7948 124.217Z" fill="white" stroke="#1E196B" stroke-width="1.86952"/>
<path d="M89.9814 123.779C90.895 123.779 91.6356 123.039 91.6356 122.125C91.6356 121.211 90.895 120.471 89.9814 120.471C89.0678 120.471 88.3271 121.211 88.3271 122.125C88.3271 123.039 89.0678 123.779 89.9814 123.779Z" fill="white" stroke="#1E196B" stroke-width="1.86952"/>
<path fill-rule="evenodd" clip-rule="evenodd" d="M76.6432 92.2627C76.3148 92.2627 76.0088 92.3583 75.7456 92.5229C75.4659 92.6976 75.2341 92.95 75.0738 93.2482C75.0541 93.2852 75.0353 93.3226 75.0181 93.3604C74.977 93.3576 74.9356 93.356 74.8939 93.356C74.4371 93.356 74.0236 93.541 73.7242 93.8404C73.4246 94.1397 73.2397 94.5534 73.2397 95.0102C73.2397 95.2554 73.2928 95.488 73.3888 95.6971C73.436 95.8003 73.4946 95.8993 73.5639 95.9925C73.4518 95.9785 73.3367 95.9761 73.2204 95.9859C72.7951 96.0222 72.4159 96.2195 72.1437 96.5164C71.8736 96.8107 71.709 97.2033 71.709 97.6342C71.709 98.091 71.894 98.5045 72.1936 98.8039C72.4929 99.1032 72.9064 99.2885 73.3632 99.2885C73.5165 99.2885 73.6647 99.2677 73.8053 99.229C73.8506 99.2165 73.8954 99.2021 73.9398 99.1855C73.9654 99.225 73.9927 99.2635 74.0214 99.3009C74.324 99.6923 74.7981 99.9445 75.3312 99.9445C75.788 99.9445 76.2015 99.7592 76.5008 99.4599C76.8002 99.1605 76.9854 98.747 76.9854 98.2902C76.9854 98.0451 76.9323 97.8125 76.8363 97.6032C76.789 97.5 76.7304 97.4009 76.6611 97.3078C76.7733 97.3218 76.8883 97.3244 77.0047 97.3143C77.43 97.278 77.8091 97.0808 78.0814 96.7841C78.3514 96.4895 78.5161 96.0972 78.5161 95.6662C78.5161 95.3089 78.4028 94.9779 78.2102 94.7076C78.1885 94.6772 78.1658 94.6475 78.1419 94.6184C78.1579 94.5843 78.1726 94.55 78.1861 94.515C78.2581 94.3295 78.2974 94.1277 78.2974 93.9169C78.2974 93.4601 78.1122 93.0464 77.8128 92.747C77.5135 92.4477 77.1 92.2627 76.6432 92.2627Z" fill="white" stroke="#1E196B" stroke-width="1.86952"/>
<path d="M78.6112 96.6646C79.5248 96.6646 80.2655 95.924 80.2655 95.0104C80.2655 94.0968 79.5248 93.3562 78.6112 93.3562C77.6977 93.3562 76.957 94.0968 76.957 95.0104C76.957 95.924 77.6977 96.6646 78.6112 96.6646Z" fill="white" stroke="#1E196B" stroke-width="1.86952"/>
<path d="M73.4727 104.536C74.2052 104.536 74.7989 103.943 74.7989 103.21C74.7989 102.478 74.2052 101.884 73.4727 101.884C72.7402 101.884 72.1465 102.478 72.1465 103.21C72.1465 103.943 72.7402 104.536 73.4727 104.536Z" fill="white" stroke="#1E196B" stroke-width="1.86952"/>
<path d="M76.3146 93.2752C76.9262 93.2752 77.4221 92.7792 77.4221 92.1676C77.4221 91.5558 76.9262 91.0601 76.3146 91.0601C75.7027 91.0601 75.207 91.5558 75.207 92.1676C75.207 92.7792 75.7027 93.2752 76.3146 93.2752Z" fill="white" stroke="#1E196B" stroke-width="1.86952"/>
<path d="M73.254 91.198C73.8656 91.198 74.3616 90.7021 74.3616 90.0905C74.3616 89.4786 73.8656 88.9829 73.254 88.9829C72.6422 88.9829 72.1465 89.4786 72.1465 90.0905C72.1465 90.7021 72.6422 91.198 73.254 91.198Z" fill="white" stroke="#1E196B" stroke-width="1.86952"/>
<path fill-rule="evenodd" clip-rule="evenodd" d="M72.3307 109.756C71.6393 109.756 71.0371 109.971 70.6251 110.327C70.2337 110.666 70.0179 111.132 70.0785 111.649C70.1322 112.107 70.3881 112.524 70.764 112.853C71.1611 113.201 71.6929 113.451 72.2778 113.546C72.3801 113.563 72.4823 113.575 72.5839 113.581C72.5238 113.661 72.4722 113.746 72.4296 113.836C72.3163 114.074 72.2686 114.339 72.3003 114.619C72.3633 115.174 72.7208 115.67 73.2299 116.02L73.5959 116.272L73.1662 116.386C72.8964 116.457 72.6714 116.595 72.5238 116.78C72.3895 116.947 72.3218 117.153 72.3473 117.377C72.3812 117.675 72.5688 117.941 72.8339 118.135C73.1157 118.341 73.4872 118.468 73.8811 118.468C74.1887 118.468 74.4653 118.391 74.6825 118.256C74.8896 118.127 75.042 117.946 75.1049 117.733C75.1404 117.613 75.1469 117.487 75.1272 117.36C75.2224 117.458 75.3223 117.549 75.4266 117.63C75.8077 117.927 76.2921 118.137 76.8232 118.261C76.8726 118.273 76.9223 118.284 76.9715 118.294C76.9721 118.342 76.975 118.391 76.98 118.439C77.0242 118.863 77.2398 119.252 77.5625 119.569C77.9056 119.905 78.3699 120.159 78.8903 120.286C78.9355 120.298 78.981 120.308 79.0265 120.317C79.0302 120.362 79.0359 120.407 79.0434 120.451C79.1286 120.961 79.4586 121.415 79.9217 121.743C80.3973 122.08 81.0144 122.286 81.6704 122.286C81.7382 122.286 81.8051 122.284 81.8711 122.28C81.9123 122.277 81.9536 122.273 81.9954 122.268C82.0153 122.305 82.036 122.34 82.0577 122.374C82.4998 123.076 83.4123 123.559 84.4149 123.559C85.0847 123.559 85.6746 123.343 86.0844 122.988C86.4765 122.648 86.7013 122.179 86.658 121.659C86.6136 121.129 86.2996 120.652 85.838 120.306C85.3595 119.946 84.7208 119.725 84.0366 119.725C83.9682 119.725 83.9004 119.728 83.8341 119.732C83.793 119.735 83.7517 119.738 83.7099 119.743C83.6902 119.707 83.6695 119.671 83.6478 119.637C83.3187 119.115 82.7222 118.714 82.0214 118.543C81.9755 118.532 81.9297 118.522 81.8838 118.513C81.8803 118.467 81.8751 118.422 81.8679 118.377C81.7977 117.94 81.5447 117.545 81.1806 117.23C80.7938 116.895 80.2812 116.65 79.7153 116.54C79.6628 116.53 79.6106 116.521 79.5583 116.513C79.5583 116.462 79.5557 116.411 79.5507 116.359C79.4883 115.719 79.0329 115.16 78.3985 114.81C78.3559 114.786 78.3128 114.764 78.2695 114.743C78.2813 114.698 78.2896 114.654 78.294 114.61C78.2992 114.558 78.2992 114.505 78.2938 114.451C78.2579 114.091 77.9972 113.781 77.6419 113.585C77.5698 113.545 77.4958 113.511 77.4208 113.484C77.4753 113.424 77.5251 113.361 77.5704 113.293C77.7571 113.012 77.8483 112.682 77.8129 112.33C77.7596 111.798 77.4309 111.322 76.9542 110.975C76.4591 110.614 75.8025 110.392 75.1025 110.392C74.8791 110.392 74.665 110.415 74.2933 110.417C73.7849 110.01 73.0816 109.756 72.3307 109.756Z" fill="white" stroke="#1E196B" stroke-width="1.86952"/>
<path d="M81.0165 120.499C81.9301 120.499 82.6707 119.759 82.6707 118.845C82.6707 117.932 81.9301 117.191 81.0165 117.191C80.1029 117.191 79.3623 117.932 79.3623 118.845C79.3623 119.759 80.1029 120.499 81.0165 120.499Z" fill="white" stroke="#1E196B" stroke-width="1.86952"/>
<path fill-rule="evenodd" clip-rule="evenodd" d="M71.0675 105.164C70.549 105.164 70.0771 105.363 69.724 105.689C69.368 106.017 69.1325 106.474 69.0916 106.986C69.0872 107.04 69.0853 107.093 69.0853 107.145C69.0328 107.152 68.9803 107.16 68.9278 107.17C68.4697 107.262 68.0687 107.511 67.7838 107.859C67.5039 108.201 67.3359 108.638 67.3359 109.114C67.3359 109.662 67.5577 110.157 67.9165 110.516C68.2751 110.875 68.7708 111.096 69.3182 111.096C69.7137 111.096 70.0824 110.981 70.3918 110.781C70.7113 110.575 70.9676 110.279 71.1254 109.929C71.1784 109.812 71.2192 109.691 71.2483 109.567C71.3085 109.679 71.3813 109.783 71.465 109.879C71.7683 110.223 72.2124 110.44 72.7075 110.44C73.1643 110.44 73.5778 110.255 73.8771 109.956C74.1765 109.657 74.3617 109.243 74.3617 108.786C74.3617 108.192 74.0477 107.67 73.5765 107.379C73.5397 107.356 73.5021 107.335 73.4639 107.315C73.4711 107.272 73.4765 107.229 73.4805 107.187C73.4848 107.137 73.487 107.087 73.487 107.037C73.487 106.614 73.3287 106.229 73.0683 105.937C72.805 105.641 72.4372 105.441 71.9546 105.373C71.6876 105.239 71.3863 105.164 71.0675 105.164Z" fill="white" stroke="#1E196B" stroke-width="1.86952"/>
<path d="M70.8485 111.315C71.8224 111.315 72.6121 110.526 72.6121 109.552C72.6121 108.578 71.8224 107.788 70.8485 107.788C69.8746 107.788 69.085 108.578 69.085 109.552C69.085 110.526 69.8746 111.315 70.8485 111.315Z" fill="white" stroke="#1E196B" stroke-width="1.86952"/>
<path d="M69.536 108.473C70.5099 108.473 71.2996 107.683 71.2996 106.709C71.2996 105.735 70.5099 104.946 69.536 104.946C68.5621 104.946 67.7725 105.735 67.7725 106.709C67.7725 107.683 68.5621 108.473 69.536 108.473Z" fill="white" stroke="#1E196B" stroke-width="1.86952"/>
<path d="M68.2245 106.723C69.1984 106.723 69.988 105.934 69.988 104.96C69.988 103.986 69.1984 103.196 68.2245 103.196C67.2505 103.196 66.4609 103.986 66.4609 104.96C66.4609 105.934 67.2505 106.723 68.2245 106.723Z" fill="white" stroke="#1E196B" stroke-width="1.86952"/>
<path d="M68.2245 103.662C69.1984 103.662 69.988 102.872 69.988 101.898C69.988 100.924 69.1984 100.135 68.2245 100.135C67.2505 100.135 66.4609 100.924 66.4609 101.898C66.4609 102.872 67.2505 103.662 68.2245 103.662Z" fill="white" stroke="#1E196B" stroke-width="1.86952"/>
</g>
<defs>
<linearGradient id="paint0_linear_78_1792" x1="4.53809" y1="115.962" x2="149.851" y2="113.586" gradientUnits="userSpaceOnUse">
<stop stop-color="#F37120"/>
<stop offset="0.333333" stop-color="#F68C19"/>
<stop offset="0.666667" stop-color="#F9A711"/>
<stop offset="1" stop-color="#FFDD02"/>
</linearGradient>
<clipPath id="clip0_78_1792">
<rect width="164" height="164" fill="white"/>
</clipPath>
</defs>
</svg>
