<svg width="14" height="21" viewBox="0 0 14 21" fill="none" xmlns="http://www.w3.org/2000/svg">
<path d="M10.5 1.3125C10.8481 1.3125 11.1819 1.45078 11.4281 1.69692C11.6742 1.94306 11.8125 2.2769 11.8125 2.625V18.375C11.8125 18.7231 11.6742 19.0569 11.4281 19.3031C11.1819 19.5492 10.8481 19.6875 10.5 19.6875H2.625C2.2769 19.6875 1.94306 19.5492 1.69692 19.3031C1.45078 19.0569 1.3125 18.7231 1.3125 18.375V2.625C1.3125 2.2769 1.45078 1.94306 1.69692 1.69692C1.94306 1.45078 2.2769 1.3125 2.625 1.3125H10.5ZM2.625 0C1.92881 0 1.26113 0.276562 0.768845 0.768845C0.276562 1.26113 0 1.92881 0 2.625V18.375C0 19.0712 0.276562 19.7389 0.768845 20.2312C1.26113 20.7234 1.92881 21 2.625 21H10.5C11.1962 21 11.8639 20.7234 12.3562 20.2312C12.8484 19.7389 13.125 19.0712 13.125 18.375V2.625C13.125 1.92881 12.8484 1.26113 12.3562 0.768845C11.8639 0.276562 11.1962 0 10.5 0L2.625 0Z" fill="#1E196B"/>
<path d="M6.5625 18.375C6.9106 18.375 7.24444 18.2367 7.49058 17.9906C7.73672 17.7444 7.875 17.4106 7.875 17.0625C7.875 16.7144 7.73672 16.3806 7.49058 16.1344C7.24444 15.8883 6.9106 15.75 6.5625 15.75C6.2144 15.75 5.88056 15.8883 5.63442 16.1344C5.38828 16.3806 5.25 16.7144 5.25 17.0625C5.25 17.4106 5.38828 17.7444 5.63442 17.9906C5.88056 18.2367 6.2144 18.375 6.5625 18.375Z" fill="#1E196B"/>
</svg>
