<svg width="36" height="36" viewBox="0 0 36 36" fill="none" xmlns="http://www.w3.org/2000/svg">
<path d="M17.9639 0.5C18.5794 0.500079 19.1702 0.744405 19.6055 1.17969C20.0407 1.615 20.2851 2.2057 20.2852 2.82129V5.37207C22.8313 5.84305 25.1789 7.07444 27.0146 8.91016C28.8504 10.7459 30.0818 13.0935 30.5527 15.6396H33.1006C33.7162 15.6396 34.3069 15.8841 34.7422 16.3193C35.1775 16.7546 35.4218 17.3453 35.4219 17.9609C35.4219 18.5766 35.1775 19.1672 34.7422 19.6025C34.3068 20.0379 33.7163 20.2822 33.1006 20.2822H30.5498C30.0793 22.829 28.8485 25.1774 27.0127 27.0137C25.1769 28.8499 22.8288 30.0807 20.2822 30.5518V33.1006C20.2822 33.7163 20.0379 34.3068 19.6025 34.7422C19.1672 35.1775 18.5766 35.4219 17.9609 35.4219C17.3453 35.4218 16.7546 35.1775 16.3193 34.7422C15.8841 34.3069 15.6396 33.7162 15.6396 33.1006V30.5498C13.0931 30.0793 10.7444 28.8484 8.9082 27.0127C7.07208 25.1769 5.84116 22.8287 5.37012 20.2822H2.82129C2.20566 20.2822 1.61501 20.0379 1.17969 19.6025C0.744443 19.1672 0.5 18.5765 0.5 17.9609C0.500055 17.3453 0.744384 16.7546 1.17969 16.3193C1.615 15.884 2.20567 15.6397 2.82129 15.6396H5.375C5.84554 13.0931 7.07636 10.7444 8.91211 8.9082C10.748 7.07204 13.096 5.84014 15.6426 5.36914V2.82129C15.6426 2.20566 15.8869 1.61501 16.3223 1.17969C16.7576 0.744472 17.3483 0.5 17.9639 0.5ZM21.0801 10.4189C19.5896 9.80306 17.9498 9.64272 16.3682 9.95801C14.7865 10.2733 13.3338 11.051 12.1934 12.1914C11.0531 13.3318 10.2762 14.7847 9.96094 16.3662C9.64576 17.9476 9.80612 19.5868 10.4219 21.0771C11.0378 22.5677 12.082 23.8425 13.4219 24.7402C14.7617 25.6378 16.3375 26.1184 17.9502 26.1211H17.9775C20.1368 26.1174 22.2065 25.2582 23.7334 23.7314C25.2602 22.2046 26.1202 20.1348 26.124 17.9756V17.9473L26.1182 17.6455C26.0598 16.1386 25.5847 14.675 24.7432 13.4189C23.8455 12.0791 22.5706 11.0349 21.0801 10.4189ZM17.9639 14.4736C18.8886 14.4737 19.7758 14.8412 20.4297 15.4951C21.0836 16.149 21.4511 17.0362 21.4512 17.9609C21.4512 18.8857 21.0835 19.7728 20.4297 20.4268C19.7758 21.0807 18.8886 21.4482 17.9639 21.4482C17.039 21.4482 16.152 21.0807 15.498 20.4268C14.8441 19.7728 14.4766 18.8858 14.4766 17.9609C14.4766 17.0362 14.8441 16.149 15.498 15.4951C16.152 14.8413 17.0391 14.4736 17.9639 14.4736Z" fill="#1E196B" stroke="white"/>
</svg>
