<svg width="20" height="22" viewBox="0 0 20 22" fill="none" xmlns="http://www.w3.org/2000/svg">
<path d="M2.9885 21.5003C1.61417 21.5003 0.5 20.357 0.5 18.9453V8.67632C0.5 7.90049 0.844167 7.16549 1.43333 6.68132L8.27817 1.06032C8.7155 0.698169 9.26552 0.5 9.83333 0.5C10.4012 0.5 10.9512 0.698169 11.3885 1.06032L18.2322 6.68132C18.8225 7.16549 19.1667 7.90049 19.1667 8.67632V18.9453C19.1667 20.357 18.0525 21.5003 16.6782 21.5003H2.9885Z" stroke="#1E196B" stroke-linecap="round" stroke-linejoin="round"/>
<path d="M6.91602 21.5002V15.0836C6.91602 14.4647 7.16185 13.8712 7.59943 13.4337C8.03702 12.9961 8.63051 12.7502 9.24935 12.7502H10.416C11.0349 12.7502 11.6283 12.9961 12.0659 13.4337C12.5035 13.8712 12.7493 14.4647 12.7493 15.0836V21.5002" stroke="#1E196B" stroke-linecap="round" stroke-linejoin="round"/>
</svg>
