<svg width="115" height="37" viewBox="0 0 115 37" fill="none" xmlns="http://www.w3.org/2000/svg">
<rect opacity="0.35" x="68.5" y="6.5" width="24" height="12" rx="3.8" stroke="black"/>
<path opacity="0.4" d="M94 10.7812V14.8567C94.8047 14.5116 95.328 13.7086 95.328 12.819C95.328 11.9294 94.8047 11.1264 94 10.7812Z" fill="black"/>
<rect x="70" y="8" width="21" height="9" rx="2.5" fill="black"/>
<path fill-rule="evenodd" clip-rule="evenodd" d="M52.2705 9.10398C54.7576 9.10408 57.1496 10.0262 58.9521 11.6796C59.0879 11.8073 59.3048 11.8057 59.4385 11.676L60.736 10.4126C60.8037 10.3468 60.8414 10.2577 60.8409 10.165C60.8403 10.0724 60.8015 9.98372 60.733 9.91873C56.002 5.54402 48.5383 5.54402 43.8073 9.91873C43.7387 9.98368 43.6999 10.0723 43.6992 10.165C43.6986 10.2577 43.7363 10.3468 43.8039 10.4126L45.1018 11.676C45.2354 11.8059 45.4525 11.8075 45.5881 11.6796C47.3909 10.0261 49.7832 9.10397 52.2705 9.10398ZM52.2672 13.3243C53.6245 13.3242 54.9334 13.8359 55.9395 14.76C56.0756 14.8912 56.2899 14.8883 56.4226 14.7536L57.7099 13.4343C57.7777 13.3651 57.8153 13.2712 57.8143 13.1737C57.8133 13.0761 57.7738 12.9831 57.7047 12.9153C54.6408 10.0244 49.8961 10.0244 46.8323 12.9153C46.7631 12.9831 46.7236 13.0762 46.7227 13.1738C46.7218 13.2714 46.7595 13.3652 46.8274 13.4343L48.1143 14.7536C48.247 14.8883 48.4614 14.8912 48.5974 14.76C49.6029 13.8365 50.9107 13.3248 52.2672 13.3243ZM54.7916 16.1178C54.7935 16.2232 54.7565 16.3247 54.6892 16.3985L52.5125 18.8533C52.4487 18.9254 52.3617 18.966 52.2709 18.966C52.1802 18.966 52.0932 18.9254 52.0294 18.8533L49.8523 16.3985C49.7851 16.3247 49.7481 16.2231 49.7501 16.1177C49.7521 16.0124 49.7929 15.9126 49.8629 15.842C51.253 14.5281 53.2889 14.5281 54.679 15.842C54.7489 15.9127 54.7897 16.0125 54.7916 16.1178Z" fill="black"/>
<path fill-rule="evenodd" clip-rule="evenodd" d="M36.2 7.68211C36.2 7.04907 35.7224 6.53589 35.1333 6.53589H34.0667C33.4776 6.53589 33 7.04907 33 7.68211V17.6161C33 18.2491 33.4776 18.7623 34.0667 18.7623H35.1333C35.7224 18.7623 36.2 18.2491 36.2 17.6161V7.68211ZM28.7659 8.98117H29.8326C30.4217 8.98117 30.8992 9.50667 30.8992 10.1549V17.5886C30.8992 18.2368 30.4217 18.7623 29.8326 18.7623H28.7659C28.1768 18.7623 27.6992 18.2368 27.6992 17.5886V10.1549C27.6992 9.50667 28.1768 8.98117 28.7659 8.98117ZM24.4341 11.6302H23.3674C22.7783 11.6302 22.3008 12.1624 22.3008 12.8189V17.5736C22.3008 18.2301 22.7783 18.7623 23.3674 18.7623H24.4341C25.0232 18.7623 25.5008 18.2301 25.5008 17.5736V12.8189C25.5008 12.1624 25.0232 11.6302 24.4341 11.6302ZM19.1333 14.0755H18.0667C17.4776 14.0755 17 14.6001 17 15.2472V17.5906C17 18.2377 17.4776 18.7623 18.0667 18.7623H19.1333C19.7224 18.7623 20.2 18.2377 20.2 17.5906V15.2472C20.2 14.6001 19.7224 14.0755 19.1333 14.0755Z" fill="black"/>
</svg>
