<svg width="20" height="28" viewBox="0 0 20 28" fill="none" xmlns="http://www.w3.org/2000/svg">
<path d="M5.51465 20.7417C6.34383 21.7737 7.09854 22.8608 7.77332 23.9951C8.34941 25.0618 8.58957 25.7852 9.01059 27.0705C9.26879 27.7806 9.50215 27.9926 10.0039 27.9926C10.5506 27.9926 10.7986 27.632 10.9903 27.0744C11.3882 25.8605 11.7005 24.9342 12.1932 24.0588C13.1599 22.3689 14.3611 20.8672 15.5414 19.424C15.861 19.0155 17.9269 16.6358 18.857 14.7581C18.857 14.7581 20.0001 12.6955 20.0001 9.81486C20.0001 7.12029 18.8728 5.25146 18.8728 5.25146L15.6271 6.10031L13.656 11.1701L13.1683 11.8692L13.0708 11.9959L12.9411 12.1544L12.7135 12.4076L12.3882 12.7253L10.6329 14.1217L6.24465 16.5961L5.51465 20.7417Z" fill="#34A853"/>
<path d="M0.985352 14.4114C2.05637 16.8004 4.12168 18.9004 5.51902 20.7434L12.941 12.1577C12.941 12.1577 11.8954 13.4932 9.99863 13.4932C7.8859 13.4932 6.1791 11.8456 6.1791 9.76809C6.1791 8.34345 7.05676 7.36475 7.05676 7.36475L2.01855 8.68311L0.985352 14.4114Z" fill="#FBBC04"/>
<path d="M13.0239 0.441406C15.4889 1.21755 17.5987 2.84696 18.8749 5.2497L12.9432 12.1527C12.9432 12.1527 13.8209 11.1563 13.8209 9.74046C13.8209 7.61459 11.9879 6.02645 10.0076 6.02645C8.13504 6.02645 7.05957 7.3597 7.05957 7.3597V3.01092L13.0239 0.441406Z" fill="#4285F4"/>
<path d="M2.34473 3.49161C3.81699 1.7714 6.40762 0 9.97918 0C11.712 0 13.0175 0.444262 13.0175 0.444262L7.05371 7.36362H2.82832L2.34473 3.49161Z" fill="#1A73E8"/>
<path d="M0.985312 14.4115C0.985312 14.4115 0 12.5272 0 9.79735C0 7.2173 1.02703 4.96204 2.34492 3.4917L7.05726 7.36432L0.985312 14.4115Z" fill="#EA4335"/>
</svg>
