<svg width="31" height="31" viewBox="0 0 31 31" fill="none" xmlns="http://www.w3.org/2000/svg">
<circle cx="15.9027" cy="15.9026" r="14.9671" fill="white"/>
<mask id="mask0_222_1165" style="mask-type:alpha" maskUnits="userSpaceOnUse" x="0" y="0" width="31" height="31">
<circle cx="15.4349" cy="15.4349" r="15.4349" fill="#D9D9D9"/>
</mask>
<g mask="url(#mask0_222_1165)">
<path fill-rule="evenodd" clip-rule="evenodd" d="M13.9446 13.8859C15.5907 14.3575 17.0939 14.3963 17.7026 14.0541C19.2291 13.1958 17.7752 7.18799 15.8742 5.17415C13.973 3.16028 7.17614 3.87626 8.10059 8.62526C8.42157 10.2735 9.49248 11.5349 10.8178 12.4437L11.2646 21.3144L16.5183 19.9116L13.9446 13.8859Z" fill="#B28B67"/>
<path fill-rule="evenodd" clip-rule="evenodd" d="M12.6343 7.9664C12.9076 7.17179 13.2057 6.54175 13.6933 6.092C16.0128 5.51154 16.1722 5.02734 15.7989 3.63876C15.3545 3.47276 13.918 3.37702 12.41 3.64483C11.6004 3.63153 10.7205 3.90968 9.95827 4.496C8.97942 5.07793 8.25565 5.96152 8.18367 7.27313C7.41197 10.1173 9.18888 12.389 10.8905 12.8728C11.157 12.3085 11.3778 11.7717 11.5669 11.2637C11.2589 11.0916 11.0183 10.8008 10.9197 10.4344C10.7258 9.71269 11.1564 8.97056 11.8819 8.77686C11.9352 8.76262 11.9886 8.75173 12.0419 8.74408C12.3173 9.63776 13.2725 12.6549 13.9105 13.6212C14.6625 14.7604 17.1726 14.4191 18.0192 14.193C18.7505 13.9978 18.5402 13.3155 18.3896 12.8264C18.368 12.756 18.3475 12.6896 18.3312 12.6292C18.2973 12.5031 18.1326 12.5475 17.9464 12.5976C17.7045 12.6627 17.4266 12.7374 17.3523 12.4613C17.2716 12.1602 17.6275 11.8177 17.9462 11.5111C18.145 11.3199 18.3291 11.1426 18.3835 10.9983C18.5551 10.5428 18.5091 10.0026 18.095 10.1132C17.8688 10.1736 17.5932 10.3863 17.2615 10.6422C16.761 11.0286 16.1329 11.5134 15.3543 11.7213C14.068 12.0647 12.6519 8.01707 12.6343 7.9664Z" fill="#191847"/>
<path fill-rule="evenodd" clip-rule="evenodd" d="M13.6426 17.4512L15.5143 16.7827C23.764 21.6791 28.7971 32.9863 38.6825 37.7075L37.0309 40.6842C21.4723 41.4839 15.1464 27.7249 13.6426 17.4512Z" fill="#E87613"/>
<path fill-rule="evenodd" clip-rule="evenodd" d="M9.49928 43.0612C9.49928 43.0612 21.1067 41.0214 26.5757 40.0605C27.356 39.9233 27.0105 38.8281 26.7977 38.2822C24.3406 31.9821 18.0137 25.8373 16.3692 16.5435L11.3076 16.6404C8.38715 23.8759 8.39845 32.1504 9.49928 43.0612Z" fill="#DDE3E9"/>
<path fill-rule="evenodd" clip-rule="evenodd" d="M8.40391 48.0619C7.96094 50.0308 7.49161 51.7632 6.99988 53.1172L3.33768 53.7607C0.70078 41.154 3.79823 30.5527 6.7944 23.9623C5.8867 24.0561 5.01185 23.825 4.33787 22.9968C1.96566 20.081 2.30108 18.1871 4.12151 17.264C5.12254 16.7564 6.15642 16.8012 7.3941 16.8546C8.40684 16.8984 9.55581 16.9483 10.9351 16.7059C10.9356 16.7059 10.936 16.7057 10.9364 16.7057C11.0701 16.6822 11.1934 16.6699 11.3068 16.6674L12.9575 16.473C12.9575 16.473 23.553 37.6848 21.9012 45.6901L8.40391 48.0619Z" fill="#FF9B21"/>
</g>
</svg>
