<svg width="20" height="20" viewBox="0 0 20 20" fill="none" xmlns="http://www.w3.org/2000/svg">
<path fill-rule="evenodd" clip-rule="evenodd" d="M10 0.833252C9.76111 0.83322 9.52501 0.884542 9.30769 0.983741C9.09037 1.08294 8.89692 1.2277 8.74044 1.4082C8.58396 1.5887 8.46811 1.80074 8.40075 2.02993C8.33339 2.25912 8.31608 2.50012 8.35 2.73659C7.14198 3.09283 6.0817 3.83048 5.32766 4.83927C4.57362 5.84806 4.16633 7.0738 4.16667 8.33325V14.9999H3.33333C3.11232 14.9999 2.90036 15.0877 2.74408 15.244C2.5878 15.4003 2.5 15.6122 2.5 15.8333C2.5 16.0543 2.5878 16.2662 2.74408 16.4225C2.90036 16.5788 3.11232 16.6666 3.33333 16.6666H16.6667C16.8877 16.6666 17.0996 16.5788 17.2559 16.4225C17.4122 16.2662 17.5 16.0543 17.5 15.8333C17.5 15.6122 17.4122 15.4003 17.2559 15.244C17.0996 15.0877 16.8877 14.9999 16.6667 14.9999H15.8333V8.33325C15.8337 7.0738 15.4264 5.84806 14.6723 4.83927C13.9183 3.83048 12.858 3.09283 11.65 2.73659C11.6611 2.65881 11.6667 2.57992 11.6667 2.49992C11.6667 2.05789 11.4911 1.63397 11.1785 1.32141C10.866 1.00885 10.442 0.833252 10 0.833252ZM11.6667 18.3333C11.6667 18.5543 11.5789 18.7662 11.4226 18.9225C11.2663 19.0788 11.0543 19.1666 10.8333 19.1666H9.16667C8.94565 19.1666 8.73369 19.0788 8.57741 18.9225C8.42113 18.7662 8.33333 18.5543 8.33333 18.3333C8.33333 18.1122 8.42113 17.9003 8.57741 17.744C8.73369 17.5877 8.94565 17.4999 9.16667 17.4999H10.8333C11.0543 17.4999 11.2663 17.5877 11.4226 17.744C11.5789 17.9003 11.6667 18.1122 11.6667 18.3333Z" fill="#1F1F1F"/>
</svg>
