<svg width="18" height="18" viewBox="0 0 18 18" fill="none" xmlns="http://www.w3.org/2000/svg">
<path d="M14.8429 9.95019C14.9413 9.8414 14.9933 9.69846 14.9879 9.55185C14.9824 9.40524 14.9199 9.26656 14.8137 9.16539C14.7074 9.06423 14.5658 9.00858 14.4191 9.01032C14.2724 9.01205 14.1322 9.07104 14.0284 9.17469L9.56287 13.8629L9.56287 2.81244C9.56287 2.66326 9.50361 2.52018 9.39812 2.41469C9.29263 2.3092 9.14956 2.24994 9.00037 2.24994C8.85119 2.24994 8.70811 2.3092 8.60262 2.41469C8.49714 2.52018 8.43787 2.66326 8.43787 2.81244L8.43787 13.8629L3.97162 9.17469C3.9207 9.12116 3.85974 9.07818 3.79221 9.04821C3.72468 9.01825 3.65191 9.00187 3.57805 9.00003C3.50419 8.99818 3.4307 9.0109 3.36175 9.03746C3.29281 9.06402 3.22978 9.1039 3.17625 9.15482C3.12272 9.20574 3.07974 9.2667 3.04977 9.33423C3.0198 9.40176 3.00343 9.47453 3.00158 9.54839C2.99974 9.62224 3.01246 9.69574 3.03902 9.76468C3.06557 9.83362 3.10545 9.89666 3.15637 9.95019L8.45662 15.5152C8.57236 15.6368 8.72553 15.716 8.89162 15.7402C8.96356 15.7532 9.03727 15.7529 9.10912 15.7394C9.27468 15.7149 9.42727 15.6357 9.54262 15.5144L14.8429 9.95019Z" fill="#1E196B"/>
</svg>
