<svg width="11" height="8" viewBox="0 0 11 8" fill="none" xmlns="http://www.w3.org/2000/svg">
<path d="M1.875 0C1.37772 0 0.900805 0.207421 0.549175 0.576634C0.197544 0.945846 0 1.44661 0 1.96875V2.3625H10.5V1.96875C10.5 1.44661 10.3025 0.945846 9.95082 0.576634C9.59919 0.207421 9.12228 0 8.625 0H1.875ZM10.5 3.15H0V5.90625C0 6.4284 0.197544 6.92915 0.549175 7.29837C0.900805 7.66758 1.37772 7.875 1.875 7.875H8.625C9.12228 7.875 9.59919 7.66758 9.95082 7.29837C10.3025 6.92915 10.5 6.4284 10.5 5.90625V3.15ZM7.125 5.5125H8.625C8.72446 5.5125 8.81984 5.55398 8.89017 5.62783C8.96049 5.70167 9 5.80182 9 5.90625C9 6.01068 8.96049 6.11083 8.89017 6.18467C8.81984 6.25852 8.72446 6.3 8.625 6.3H7.125C7.02554 6.3 6.93016 6.25852 6.85983 6.18467C6.78951 6.11083 6.75 6.01068 6.75 5.90625C6.75 5.80182 6.78951 5.70167 6.85983 5.62783C6.93016 5.55398 7.02554 5.5125 7.125 5.5125Z" fill="#1E196B"/>
</svg>
