<svg width="81" height="81" viewBox="0 0 81 81" fill="none" xmlns="http://www.w3.org/2000/svg">
<path d="M5.34635 0.11134C3.61494 -0.35259 1.82685 0.673625 1.45003 2.42605C-0.71105 12.4762 -0.457273 22.9126 2.21136 32.872C5.16044 43.8782 10.9547 53.9141 19.0117 61.9711C27.0688 70.0282 37.1047 75.8224 48.1108 78.7715C58.0703 81.4401 68.5066 81.6939 78.5568 79.5328C80.3092 79.156 81.3354 77.3679 80.8715 75.6365C80.4076 73.9051 78.6291 72.887 76.8746 73.2541C67.9274 75.126 58.6495 74.8752 49.7908 72.5015C39.8853 69.8473 30.853 64.6325 23.6017 57.3812C16.3503 50.1299 11.1355 41.0975 8.48134 31.192C6.10767 22.3333 5.85681 13.0555 7.72877 4.10819C8.09585 2.3537 7.07776 0.575269 5.34635 0.11134Z" fill="#1E196B"/>
</svg>
