<svg width="29" height="29" viewBox="0 0 29 29" fill="none" xmlns="http://www.w3.org/2000/svg">
<path d="M13.8255 24.6082C14.0485 24.5837 14.2235 24.5102 14.3505 24.3877C14.4755 24.2633 14.538 24.111 14.538 23.9307C14.538 23.7191 14.464 23.5564 14.316 23.4428C14.168 23.3291 13.9865 23.2846 13.7715 23.3091C12.7465 23.3825 11.6015 23.069 10.3365 22.3685C9.0705 21.669 8.2875 20.4982 7.9875 18.8562C7.9375 18.625 7.8545 18.4521 7.7385 18.3374C7.6215 18.2228 7.474 18.1655 7.296 18.1655C7.099 18.1655 6.9315 18.2375 6.7935 18.3815C6.6555 18.5255 6.614 18.7411 6.669 19.0281C7.056 21.0679 8.0175 22.5277 9.5535 23.4075C11.0895 24.2873 12.5135 24.6875 13.8255 24.6082ZM13.5 28C10.498 28 7.9975 26.9904 5.9985 24.9712C3.9995 22.952 3 20.4345 3 17.4189C3 15.3086 3.869 12.9744 5.607 10.4163C7.345 7.85828 9.976 5.05283 13.5 2C17.025 5.05381 19.656 7.85975 21.393 10.4178C23.131 12.9749 24 15.3086 24 17.4189C24 20.4336 23.0005 22.951 21.0015 24.9712C19.0025 26.9914 16.502 28.001 13.5 28Z" fill="#F36F21"/>
</svg>
