<svg width="20" height="20" viewBox="0 0 20 20" fill="none" xmlns="http://www.w3.org/2000/svg">
<g clip-path="url(#clip0_78_3002)">
<path d="M15.417 15.4167H20.0003M15.417 15.4167V3.75H2.91699C2.91699 3.75 0.416992 7.5 0.416992 13.8467V15.4167H5.83366M15.417 15.4167H10.0003M5.83366 15.4167C5.83366 15.9692 6.05315 16.4991 6.44385 16.8898C6.83455 17.2805 7.36446 17.5 7.91699 17.5C8.46953 17.5 8.99943 17.2805 9.39013 16.8898C9.78083 16.4991 10.0003 15.9692 10.0003 15.4167M5.83366 15.4167C5.83366 14.8641 6.05315 14.3342 6.44385 13.9435C6.83455 13.5528 7.36446 13.3333 7.91699 13.3333C8.46953 13.3333 8.99943 13.5528 9.39013 13.9435C9.78083 14.3342 10.0003 14.8641 10.0003 15.4167M17.5003 17.0833H20.0003M8.33366 6.25V9.58333M3.33366 9.58333C3.56193 8.446 3.88872 7.33068 4.31033 6.25H12.917V9.58333H3.33366Z" stroke="#1E196B"/>
</g>
<defs>
<clipPath id="clip0_78_3002">
<rect width="20" height="20" fill="white"/>
</clipPath>
</defs>
</svg>
