<svg width="15" height="16" viewBox="0 0 15 16" fill="none" xmlns="http://www.w3.org/2000/svg">
<path d="M2.2775 15.5002C1.29583 15.5002 0.5 14.6836 0.5 13.6752V6.34023C0.5 5.78606 0.745833 5.26106 1.16667 4.91523L6.05583 0.90023C6.36821 0.641549 6.76108 0.5 7.16667 0.5C7.57225 0.5 7.96512 0.641549 8.2775 0.90023L13.1658 4.91523C13.5875 5.26106 13.8333 5.78606 13.8333 6.34023V13.6752C13.8333 14.6836 13.0375 15.5002 12.0558 15.5002H2.2775Z" stroke="#1E196B" stroke-linecap="round" stroke-linejoin="round"/>
<path d="M5.08301 15.5002V10.9169C5.08301 10.4749 5.2586 10.051 5.57116 9.7384C5.88372 9.42584 6.30765 9.25024 6.74967 9.25024H7.58301C8.02504 9.25024 8.44896 9.42584 8.76152 9.7384C9.07408 10.051 9.24967 10.4749 9.24967 10.9169V15.5002" stroke="#1E196B" stroke-linecap="round" stroke-linejoin="round"/>
</svg>
