<svg width="22" height="17" viewBox="0 0 22 17" fill="none" xmlns="http://www.w3.org/2000/svg">
<path d="M12.8608 3.08414C12.8776 3.0283 12.8752 2.96846 12.854 2.91414C12.8328 2.85982 12.7941 2.81415 12.7439 2.78439C12.6937 2.7551 12.6351 2.74376 12.5776 2.75226C12.5201 2.76076 12.4672 2.78858 12.4277 2.83114L8.31918 7.21326C8.28505 7.24998 8.26233 7.29582 8.25378 7.34521C8.24524 7.39461 8.25124 7.44542 8.27106 7.49146C8.29087 7.53751 8.32365 7.5768 8.36539 7.60455C8.40714 7.6323 8.45605 7.64731 8.50618 7.64776H10.2126L9.28718 10.6659C9.27042 10.7217 9.27282 10.7816 9.294 10.8359C9.31518 10.8902 9.35392 10.9359 9.40405 10.9656C9.50718 11.0248 9.6378 11.0069 9.7203 10.9189L13.6803 6.53676C13.7145 6.49996 13.7373 6.454 13.7458 6.40448C13.7542 6.35496 13.7481 6.30403 13.7281 6.25794C13.7082 6.21184 13.6752 6.17257 13.6332 6.14492C13.5913 6.11727 13.5422 6.10245 13.4919 6.10226H11.7856L12.8608 3.08414Z" fill="#1E196B"/>
<path d="M6.62475 4.12028e-07C5.95178 -0.000329013 5.29351 0.196885 4.73158 0.567188C4.16965 0.93749 3.72878 1.46459 3.46362 2.08313L2.37462 4.62413C2.27227 4.86567 2.08696 5.06269 1.85213 5.17963C1.16463 5.52338 0.6765 6.16275 0.52525 6.91488L0.067375 9.2235C0.0227986 9.44532 0.000230767 9.671 0 9.89725V10.4651C0 11.5844 0.53625 12.5868 1.375 13.211V15.8125C1.375 15.9948 1.44743 16.1697 1.57636 16.2986C1.7053 16.4276 1.88016 16.5 2.0625 16.5H4.8125C4.99484 16.5 5.1697 16.4276 5.29864 16.2986C5.42757 16.1697 5.5 15.9948 5.5 15.8125V13.9727C7.2765 14.0387 9.27437 14.0938 11 14.0938C12.7256 14.0938 14.7235 14.0387 16.5 13.9727V15.8125C16.5 15.9948 16.5724 16.1697 16.7014 16.2986C16.8303 16.4276 17.0052 16.5 17.1875 16.5H19.9375C20.1198 16.5 20.2947 16.4276 20.4236 16.2986C20.5526 16.1697 20.625 15.9948 20.625 15.8125V13.211C21.4638 12.5868 22 11.5844 22 10.4651V9.89725C22 9.66992 21.9775 9.44533 21.9326 9.2235L21.472 6.9135C21.3983 6.5424 21.2405 6.19315 21.0107 5.89257C20.7809 5.59199 20.4853 5.3481 20.1465 5.17963C19.9111 5.06295 19.7253 4.8659 19.6226 4.62413L18.5336 2.08313C18.2685 1.46459 17.8276 0.93749 17.2657 0.567188C16.7037 0.196885 16.0455 -0.000329013 15.3725 4.12028e-07H6.62613H6.62475ZM4.72863 2.62625C4.88756 2.25474 5.15213 1.93811 5.48946 1.71566C5.8268 1.49321 6.22205 1.37476 6.62613 1.375H15.3739C15.7777 1.37503 16.1727 1.49361 16.5097 1.71604C16.8468 1.93847 17.1112 2.25496 17.27 2.62625L18.359 5.16588C18.59 5.70633 19.0057 6.14695 19.5319 6.40888C19.8371 6.56288 20.0557 6.84888 20.1231 7.18438L20.5851 9.493C20.6126 9.62683 20.6259 9.76158 20.625 9.89725V10.4651C20.627 10.9891 20.4269 11.4936 20.0663 11.8737C19.7057 12.2538 19.2123 12.4801 18.689 12.5056C16.5509 12.6019 13.4832 12.7188 11 12.7188C8.51675 12.7188 5.44912 12.6033 3.311 12.5056C2.78743 12.4805 2.29375 12.2543 1.93284 11.8742C1.57192 11.494 1.37161 10.9893 1.37363 10.4651V9.89725C1.37363 9.76158 1.38737 9.62683 1.41487 9.493L1.8755 7.183C1.90799 7.01723 1.97823 6.86117 2.08077 6.72692C2.1833 6.59268 2.31537 6.48385 2.46675 6.40888C2.99337 6.14763 3.40863 5.70625 3.63963 5.16588L4.72863 2.62625Z" fill="#1E196B"/>
</svg>
