<svg width="21" height="21" viewBox="0 0 21 21" fill="none" xmlns="http://www.w3.org/2000/svg">
<path d="M2.51984 19.9501C2.51984 20.468 2.8424 20.7901 3.35984 20.7901C3.87854 20.7901 4.19984 20.468 4.19984 19.9501V12.1801H5.03984V19.9501C5.03984 20.4671 5.36198 20.7901 5.87984 20.7901C6.3977 20.7901 6.71984 20.468 6.71984 19.9501V6.72012H7.13984V11.472C7.13984 12.4779 8.40236 12.4779 8.39984 11.472V6.36774C8.39984 5.25642 7.59932 4.62012 6.29984 4.62012H2.93984C1.75544 4.62012 0.839844 5.1321 0.839844 6.33666V11.7601C0.839844 12.6001 2.09984 12.6001 2.09984 11.7601V6.72012H2.51984V19.9501Z" fill="#1E196B"/>
<path d="M4.56844 3.88492C5.52527 3.88492 6.30094 3.10926 6.30094 2.15242C6.30094 1.19559 5.52527 0.419922 4.56844 0.419922C3.6116 0.419922 2.83594 1.19559 2.83594 2.15242C2.83594 3.10926 3.6116 3.88492 4.56844 3.88492Z" fill="#1E196B"/>
<path d="M15.0684 3.88492C16.0253 3.88492 16.8009 3.10926 16.8009 2.15242C16.8009 1.19559 16.0253 0.419922 15.0684 0.419922C14.1116 0.419922 13.3359 1.19559 13.3359 2.15242C13.3359 3.10926 14.1116 3.88492 15.0684 3.88492Z" fill="#1E196B"/>
<path d="M19.2841 13.6501L16.8023 6.83058L16.788 6.76044C16.788 6.6609 16.8716 6.58026 16.9757 6.58026C17.0644 6.58026 17.1387 6.63948 17.1584 6.71844L18.8456 11.1301C18.9577 11.3825 19.4189 11.5501 19.7221 11.5501C20.1274 11.5501 20.1694 10.7542 20.1606 10.7101L18.4735 6.46518C18.3269 5.49036 17.3424 4.62012 16.2189 4.62012H14.0202C12.8967 4.62012 11.8396 5.49036 11.6926 6.46518L10.081 10.7626C10.0445 10.8462 10.081 11.5766 10.5195 11.5766C10.8601 11.5766 11.3133 11.4447 11.3956 11.1436L13.0231 6.70668C13.0369 6.67078 13.0612 6.63987 13.0928 6.61799C13.1244 6.59611 13.1619 6.58427 13.2004 6.58404C13.3037 6.58404 13.3873 6.663 13.3873 6.76212L13.3759 6.82554L10.9576 13.651C10.9525 13.6711 10.9576 14.155 10.9576 14.1755C10.9576 14.3209 11.3087 14.7005 11.4607 14.7005H13.0206V19.9904C13.0206 20.4272 13.4053 20.7905 13.8606 20.7905C14.3159 20.7905 14.7006 20.4268 14.7006 19.9904V14.4863C14.7006 14.3675 15.5406 14.3713 15.5406 14.4901V19.9501C15.5406 20.3869 15.9257 20.7901 16.3806 20.7901C16.8367 20.7901 17.2206 20.3865 17.2206 19.9501V14.7001H18.8456C18.9976 14.7001 19.2841 14.3204 19.2841 14.1751C19.2841 14.1415 19.2962 13.6791 19.2841 13.6501Z" fill="#1E196B"/>
</svg>
