<svg width="25" height="25" viewBox="0 0 25 25" fill="none" xmlns="http://www.w3.org/2000/svg">
<path d="M12.5046 5.28848C12.1601 5.28848 11.8664 5.16764 11.6233 4.92598C11.3796 4.685 11.2577 4.39195 11.2577 4.04681C11.2577 3.77598 11.3466 3.48535 11.5243 3.17494C11.7028 2.86521 12.0278 2.44785 12.4993 1.92285C12.9709 2.44785 13.2955 2.86521 13.4733 3.17494C13.6518 3.48466 13.741 3.77528 13.741 4.04681C13.741 4.39195 13.6209 4.685 13.3806 4.92598C13.1396 5.16764 12.8473 5.28848 12.5035 5.28848M7.53581 5.28848C7.19206 5.28848 6.89831 5.16764 6.65456 4.92598C6.41081 4.68431 6.28928 4.39125 6.28997 4.04681C6.28997 3.77598 6.37886 3.48535 6.55664 3.17494C6.73511 2.86521 7.06011 2.44785 7.53164 1.92285C8.00247 2.44785 8.32713 2.86521 8.5056 3.17494C8.68407 3.48466 8.77331 3.77528 8.77331 4.04681C8.77331 4.39195 8.65317 4.685 8.41289 4.92598C8.17192 5.16764 7.87956 5.28848 7.53581 5.28848ZM17.4723 5.28848C17.1285 5.28848 16.8348 5.16764 16.591 4.92598C16.3473 4.685 16.2254 4.39195 16.2254 4.04681C16.2254 3.77598 16.3146 3.48535 16.4931 3.17494C16.6709 2.86521 16.9955 2.44785 17.4671 1.92285C17.9386 2.44785 18.2636 2.86521 18.4421 3.17494C18.6205 3.48466 18.7098 3.77528 18.7098 4.04681C18.7098 4.39195 18.5893 4.685 18.3483 4.92598C18.108 5.16764 17.816 5.28848 17.4723 5.28848ZM5.44727 20.8333V22.3958C5.44727 22.5437 5.39727 22.6673 5.29727 22.7666C5.19727 22.8659 5.074 22.9159 4.92747 22.9166H4.68685C4.53893 22.9166 4.41532 22.8666 4.31602 22.7666C4.21671 22.6666 4.16671 22.543 4.16602 22.3958V14.7437L6.23372 8.8541C6.28442 8.68882 6.38199 8.56035 6.52643 8.46869C6.67157 8.37841 6.83303 8.33327 7.01081 8.33327H18.0681C18.2257 8.33327 18.3691 8.38119 18.4983 8.47702C18.6275 8.57285 18.7167 8.69855 18.766 8.8541L20.8327 14.7437V22.3958C20.8327 22.5437 20.7827 22.6673 20.6827 22.7666C20.5827 22.8659 20.4591 22.9159 20.3119 22.9166H20.0723C19.9244 22.9166 19.8004 22.8666 19.7004 22.7666C19.6004 22.6666 19.5504 22.543 19.5504 22.3958V20.8333H5.44727ZM5.63997 13.702H19.3577L17.8243 9.37494H7.17539L5.63997 13.702ZM7.73581 18.4291C8.05942 18.4291 8.33303 18.3159 8.55664 18.0895C8.78095 17.8624 8.8931 17.5867 8.8931 17.2624C8.8931 16.9388 8.77956 16.6652 8.55247 16.4416C8.32539 16.2173 8.05004 16.1051 7.72643 16.1051C7.40213 16.1051 7.12782 16.2187 6.90352 16.4458C6.6806 16.6729 6.56914 16.9482 6.56914 17.2718C6.56914 17.5961 6.68234 17.8704 6.90872 18.0947C7.13581 18.3176 7.4122 18.4291 7.73581 18.4291ZM17.2712 18.4291C17.5948 18.4291 17.8684 18.3159 18.0921 18.0895C18.3157 17.8624 18.4275 17.5867 18.4275 17.2624C18.4275 16.9388 18.3143 16.6652 18.0879 16.4416C17.8608 16.2173 17.5855 16.1051 17.2619 16.1051C16.9375 16.1051 16.6632 16.2187 16.4389 16.4458C16.216 16.6729 16.1046 16.9482 16.1046 17.2718C16.1046 17.5961 16.2178 17.8704 16.4441 18.0947C16.6712 18.3176 16.9469 18.4291 17.2712 18.4291ZM5.20664 19.7916H19.791V14.7437H5.20664V19.7916Z" fill="#1E196B"/>
</svg>
